<svg width="52" height="53" viewBox="0 0 52 53" fill="none" xmlns="http://www.w3.org/2000/svg">
<g filter="url(#filter0_d_63_508)">
<path d="M4 22C4 9.84973 13.8497 0 26 0V0C38.1503 0 48 9.84974 48 22V22.5V23C48 35.1503 38.1503 45 26 45V45C13.8497 45 4 35.1503 4 23V22Z" fill="#D9D9D9"/>
<path d="M4 22C4 9.84973 13.8497 0 26 0V0C38.1503 0 48 9.84974 48 22V22.5V23C48 35.1503 38.1503 45 26 45V45C13.8497 45 4 35.1503 4 23V22Z" fill="#051324"/>
<path d="M5 23V22C5 10.402 14.402 1 26 1C37.598 1 47 10.402 47 22V22.5V23C47 34.598 37.598 44 26 44C14.402 44 5 34.598 5 23Z" stroke="#575EFF" stroke-width="2"/>
</g>
<path d="M21.3653 31.2852C21.3653 31.4023 21.2355 31.4961 21.0718 31.4961C20.8855 31.5137 20.7556 31.4199 20.7556 31.2852C20.7556 31.168 20.8855 31.0742 21.0492 31.0742C21.2185 31.0566 21.3653 31.1504 21.3653 31.2852ZM19.6097 31.0215C19.5702 31.1387 19.6831 31.2734 19.8524 31.3086C19.9992 31.3672 20.1685 31.3086 20.2024 31.1914C20.2363 31.0742 20.129 30.9395 19.9597 30.8867C19.8129 30.8457 19.6492 30.9043 19.6097 31.0215ZM22.1048 30.9219C21.9411 30.9629 21.8282 31.0742 21.8452 31.209C21.8621 31.3262 22.0089 31.4023 22.1782 31.3613C22.3419 31.3203 22.4548 31.209 22.4379 31.0918C22.421 30.9805 22.2685 30.9043 22.1048 30.9219ZM25.8194 8.46875C17.9895 8.46875 12 14.6387 12 22.7656C12 29.2637 15.9403 34.8242 21.5685 36.7813C22.2911 36.916 22.5452 36.4531 22.5452 36.0723C22.5452 35.709 22.5282 33.7051 22.5282 32.4746C22.5282 32.4746 18.5766 33.3535 17.7468 30.7285C17.7468 30.7285 17.1032 29.0234 16.1774 28.584C16.1774 28.584 14.8847 27.6641 16.2677 27.6816C16.2677 27.6816 17.6734 27.7988 18.4468 29.1934C19.6831 31.4551 21.7548 30.8047 22.5621 30.418C22.6919 29.4805 23.0589 28.8301 23.4653 28.4434C20.3097 28.0801 17.1258 27.6055 17.1258 21.9688C17.1258 20.3574 17.5548 19.5488 18.4581 18.5176C18.3113 18.1367 17.8315 16.5664 18.6048 14.5391C19.7847 14.1582 22.5 16.1211 22.5 16.1211C23.629 15.793 24.8427 15.623 26.0452 15.623C27.2476 15.623 28.4613 15.793 29.5903 16.1211C29.5903 16.1211 32.3056 14.1523 33.4855 14.5391C34.2589 16.5723 33.779 18.1367 33.6323 18.5176C34.5355 19.5547 35.0887 20.3633 35.0887 21.9688C35.0887 27.623 31.7637 28.0742 28.6081 28.4434C29.1274 28.9063 29.5677 29.7852 29.5677 31.1621C29.5677 33.1367 29.5508 35.5801 29.5508 36.0605C29.5508 36.4414 29.8105 36.9043 30.5274 36.7695C36.1726 34.8242 40 29.2637 40 22.7656C40 14.6387 33.6492 8.46875 25.8194 8.46875ZM17.4871 28.6777C17.4137 28.7363 17.4306 28.8711 17.5266 28.9824C17.6169 29.0762 17.7468 29.1172 17.8202 29.041C17.8935 28.9824 17.8766 28.8477 17.7806 28.7363C17.6903 28.6426 17.5605 28.6016 17.4871 28.6777ZM16.8774 28.2031C16.8379 28.2793 16.8944 28.373 17.0073 28.4316C17.0976 28.4902 17.2105 28.4727 17.25 28.3906C17.2895 28.3145 17.2331 28.2207 17.1202 28.1621C17.0073 28.127 16.9169 28.1445 16.8774 28.2031ZM18.7065 30.2891C18.6161 30.3652 18.65 30.541 18.7798 30.6523C18.9097 30.7871 19.0734 30.8047 19.1468 30.7109C19.2202 30.6348 19.1863 30.459 19.0734 30.3477C18.9492 30.2129 18.7798 30.1953 18.7065 30.2891ZM18.0629 29.4277C17.9726 29.4863 17.9726 29.6387 18.0629 29.7734C18.1532 29.9082 18.3056 29.9668 18.379 29.9082C18.4694 29.832 18.4694 29.6797 18.379 29.5449C18.3 29.4102 18.1532 29.3516 18.0629 29.4277Z" fill="white"/>
<defs>
<filter id="filter0_d_63_508" x="0" y="0" width="52" height="53" filterUnits="userSpaceOnUse" color-interpolation-filters="sRGB">
<feFlood flood-opacity="0" result="BackgroundImageFix"/>
<feColorMatrix in="SourceAlpha" type="matrix" values="0 0 0 0 0 0 0 0 0 0 0 0 0 0 0 0 0 0 127 0" result="hardAlpha"/>
<feOffset dy="4"/>
<feGaussianBlur stdDeviation="2"/>
<feComposite in2="hardAlpha" operator="out"/>
<feColorMatrix type="matrix" values="0 0 0 0 0 0 0 0 0 0 0 0 0 0 0 0 0 0 0.25 0"/>
<feBlend mode="normal" in2="BackgroundImageFix" result="effect1_dropShadow_63_508"/>
<feBlend mode="normal" in="SourceGraphic" in2="effect1_dropShadow_63_508" result="shape"/>
</filter>
</defs>
</svg>
