<svg width="580" height="500" viewBox="0 0 580 566" fill="none" xmlns="http://www.w3.org/2000/svg">
<path d="M436.566 308.764H168.989V418.738H436.566V308.764Z" fill="#575EFF" stroke="#263238" stroke-linecap="round" stroke-linejoin="round"/>
<path d="M199.752 315.421H174.58V329.016H199.752V315.421Z" fill="white" stroke="#263238" stroke-miterlimit="10"/>
<path d="M430.371 381.71H390.723V395.306H430.371V381.71Z" fill="white" stroke="#263238" stroke-miterlimit="10"/>
<path d="M430.372 332.401H405.896V345.996H430.372V332.401Z" fill="white" stroke="#263238" stroke-miterlimit="10"/>
<path d="M199.752 364.945H174.58V378.541H199.752V364.945Z" fill="white" stroke="#263238" stroke-miterlimit="10"/>
<path d="M194.961 348.565H174.58V362.161H194.961V348.565Z" fill="white" stroke="#263238" stroke-miterlimit="10"/>
<path d="M188.512 331.993H174.58V345.588H188.512V331.993Z" fill="white" stroke="#263238" stroke-miterlimit="10"/>
<path d="M206.306 331.993H192.375V345.588H206.306V331.993Z" fill="white" stroke="#263238" stroke-miterlimit="10"/>
<path d="M224.089 331.993H210.157V345.588H224.089V331.993Z" fill="white" stroke="#263238" stroke-miterlimit="10"/>
<path d="M241.872 331.993H227.94V345.588H241.872V331.993Z" fill="white" stroke="#263238" stroke-miterlimit="10"/>
<path d="M259.666 331.993H245.734V345.588H259.666V331.993Z" fill="white" stroke="#263238" stroke-miterlimit="10"/>
<path d="M277.449 331.993H263.517V345.588H277.449V331.993Z" fill="white" stroke="#263238" stroke-miterlimit="10"/>
<path d="M295.232 331.993H281.3V345.588H295.232V331.993Z" fill="white" stroke="#263238" stroke-miterlimit="10"/>
<path d="M313.026 331.993H299.094V345.588H313.026V331.993Z" fill="white" stroke="#263238" stroke-miterlimit="10"/>
<path d="M330.809 331.993H316.877V345.588H330.809V331.993Z" fill="white" stroke="#263238" stroke-miterlimit="10"/>
<path d="M348.592 331.993H334.66V345.588H348.592V331.993Z" fill="white" stroke="#263238" stroke-miterlimit="10"/>
<path d="M366.386 331.993H352.454V345.588H366.386V331.993Z" fill="white" stroke="#263238" stroke-miterlimit="10"/>
<path d="M384.169 331.993H370.237V345.588H384.169V331.993Z" fill="white" stroke="#263238" stroke-miterlimit="10"/>
<path d="M401.963 331.993H388.031V345.588H401.963V331.993Z" fill="white" stroke="#263238" stroke-miterlimit="10"/>
<path d="M188.512 398.487H174.58V412.082H188.512V398.487Z" fill="white" stroke="#263238" stroke-miterlimit="10"/>
<path d="M206.306 398.487H192.375V412.082H206.306V398.487Z" fill="white" stroke="#263238" stroke-miterlimit="10"/>
<path d="M224.089 398.487H210.157V412.082H224.089V398.487Z" fill="white" stroke="#263238" stroke-miterlimit="10"/>
<path d="M244.946 398.487H227.94V412.082H244.946V398.487Z" fill="white" stroke="#263238" stroke-miterlimit="10"/>
<path d="M333.883 398.487H248.797V412.082H333.883V398.487Z" fill="white" stroke="#263238" stroke-miterlimit="10"/>
<path d="M376.42 398.487H362.488V412.082H376.42V398.487Z" fill="white" stroke="#263238" stroke-miterlimit="10"/>
<path d="M394.203 398.487H380.271V412.082H394.203V398.487Z" fill="white" stroke="#263238" stroke-miterlimit="10"/>
<path d="M412.02 398.487H398.089V412.082H412.02V398.487Z" fill="white" stroke="#263238" stroke-miterlimit="10"/>
<path d="M358.997 398.487H337.363V412.082H358.997V398.487Z" fill="white" stroke="#263238" stroke-miterlimit="10"/>
<path d="M430.372 398.487H416.44V412.082H430.372V398.487Z" fill="white" stroke="#263238" stroke-miterlimit="10"/>
<path d="M212.849 348.565H198.917V362.161H212.849V348.565Z" fill="white" stroke="#263238" stroke-miterlimit="10"/>
<path d="M230.631 348.565H216.7V362.161H230.631V348.565Z" fill="white" stroke="#263238" stroke-miterlimit="10"/>
<path d="M248.426 348.565H234.494V362.161H248.426V348.565Z" fill="white" stroke="#263238" stroke-miterlimit="10"/>
<path d="M266.208 348.565H252.277V362.161H266.208V348.565Z" fill="white" stroke="#263238" stroke-miterlimit="10"/>
<path d="M284.003 348.565H270.071V362.161H284.003V348.565Z" fill="white" stroke="#263238" stroke-miterlimit="10"/>
<path d="M301.786 348.565H287.854V362.161H301.786V348.565Z" fill="white" stroke="#263238" stroke-miterlimit="10"/>
<path d="M319.568 348.565H305.637V362.161H319.568V348.565Z" fill="white" stroke="#263238" stroke-miterlimit="10"/>
<path d="M337.363 348.565H323.431V362.161H337.363V348.565Z" fill="white" stroke="#263238" stroke-miterlimit="10"/>
<path d="M355.145 348.565H341.214V362.161H355.145V348.565Z" fill="white" stroke="#263238" stroke-miterlimit="10"/>
<path d="M372.928 348.565H358.997V362.161H372.928V348.565Z" fill="white" stroke="#263238" stroke-miterlimit="10"/>
<path d="M390.723 348.565H376.791V362.161H390.723V348.565Z" fill="white" stroke="#263238" stroke-miterlimit="10"/>
<path d="M408.506 348.565H394.574V362.161H408.506V348.565Z" fill="white" stroke="#263238" stroke-miterlimit="10"/>
<path d="M430.371 348.565V378.745H416.44V362.172H412.357V348.565H430.371Z" fill="white" stroke="#263238" stroke-miterlimit="10"/>
<path d="M216.932 365.138H203V378.733H216.932V365.138Z" fill="white" stroke="#263238" stroke-miterlimit="10"/>
<path d="M234.714 365.138H220.783V378.733H234.714V365.138Z" fill="white" stroke="#263238" stroke-miterlimit="10"/>
<path d="M252.497 365.138H238.565V378.733H252.497V365.138Z" fill="white" stroke="#263238" stroke-miterlimit="10"/>
<path d="M270.291 365.138H256.36V378.733H270.291V365.138Z" fill="white" stroke="#263238" stroke-miterlimit="10"/>
<path d="M288.074 365.138H274.143V378.733H288.074V365.138Z" fill="white" stroke="#263238" stroke-miterlimit="10"/>
<path d="M305.869 365.138H291.937V378.733H305.869V365.138Z" fill="white" stroke="#263238" stroke-miterlimit="10"/>
<path d="M323.652 365.138H309.72V378.733H323.652V365.138Z" fill="white" stroke="#263238" stroke-miterlimit="10"/>
<path d="M341.434 365.138H327.503V378.733H341.434V365.138Z" fill="white" stroke="#263238" stroke-miterlimit="10"/>
<path d="M359.229 365.138H345.297V378.733H359.229V365.138Z" fill="white" stroke="#263238" stroke-miterlimit="10"/>
<path d="M377.012 365.138H363.08V378.733H377.012V365.138Z" fill="white" stroke="#263238" stroke-miterlimit="10"/>
<path d="M394.794 365.138H380.863V378.733H394.794V365.138Z" fill="white" stroke="#263238" stroke-miterlimit="10"/>
<path d="M412.589 365.138H398.657V378.733H412.589V365.138Z" fill="white" stroke="#263238" stroke-miterlimit="10"/>
<path d="M209.368 381.71H195.437V395.306H209.368V381.71Z" fill="white" stroke="#263238" stroke-miterlimit="10"/>
<path d="M227.151 381.71H213.22V395.306H227.151V381.71Z" fill="white" stroke="#263238" stroke-miterlimit="10"/>
<path d="M244.946 381.71H231.014V395.306H244.946V381.71Z" fill="white" stroke="#263238" stroke-miterlimit="10"/>
<path d="M262.728 381.71H248.797V395.306H262.728V381.71Z" fill="white" stroke="#263238" stroke-miterlimit="10"/>
<path d="M280.511 381.71H266.58V395.306H280.511V381.71Z" fill="white" stroke="#263238" stroke-miterlimit="10"/>
<path d="M298.306 381.71H284.374V395.306H298.306V381.71Z" fill="white" stroke="#263238" stroke-miterlimit="10"/>
<path d="M316.088 381.71H302.157V395.306H316.088V381.71Z" fill="white" stroke="#263238" stroke-miterlimit="10"/>
<path d="M333.883 381.71H319.951V395.306H333.883V381.71Z" fill="white" stroke="#263238" stroke-miterlimit="10"/>
<path d="M351.665 381.71H337.734V395.306H351.665V381.71Z" fill="white" stroke="#263238" stroke-miterlimit="10"/>
<path d="M369.448 381.71H355.517V395.306H369.448V381.71Z" fill="white" stroke="#263238" stroke-miterlimit="10"/>
<path d="M387.243 381.71H373.311V395.306H387.243V381.71Z" fill="white" stroke="#263238" stroke-miterlimit="10"/>
<path d="M216.932 316.236H203V329.831H216.932V316.236Z" fill="white" stroke="#263238" stroke-miterlimit="10"/>
<path d="M234.714 316.236H220.783V329.831H234.714V316.236Z" fill="white" stroke="#263238" stroke-miterlimit="10"/>
<path d="M252.497 316.236H238.565V329.831H252.497V316.236Z" fill="white" stroke="#263238" stroke-miterlimit="10"/>
<path d="M270.291 316.236H256.36V329.831H270.291V316.236Z" fill="white" stroke="#263238" stroke-miterlimit="10"/>
<path d="M288.074 316.236H274.143V329.831H288.074V316.236Z" fill="white" stroke="#263238" stroke-miterlimit="10"/>
<path d="M305.869 316.236H291.937V329.831H305.869V316.236Z" fill="white" stroke="#263238" stroke-miterlimit="10"/>
<path d="M323.652 316.236H309.72V329.831H323.652V316.236Z" fill="white" stroke="#263238" stroke-miterlimit="10"/>
<path d="M341.434 316.236H327.503V329.831H341.434V316.236Z" fill="white" stroke="#263238" stroke-miterlimit="10"/>
<path d="M359.229 316.236H345.297V329.831H359.229V316.236Z" fill="white" stroke="#263238" stroke-miterlimit="10"/>
<path d="M377.012 316.236H363.08V329.831H377.012V316.236Z" fill="white" stroke="#263238" stroke-miterlimit="10"/>
<path d="M394.794 316.236H380.863V329.831H394.794V316.236Z" fill="white" stroke="#263238" stroke-miterlimit="10"/>
<path d="M412.589 316.236H398.657V329.831H412.589V316.236Z" fill="white" stroke="#263238" stroke-miterlimit="10"/>
<path d="M430.372 316.236H416.44V329.831H430.372V316.236Z" fill="white" stroke="#263238" stroke-miterlimit="10"/>
<path d="M191.458 381.71H174.58V395.306H191.458V381.71Z" fill="white" stroke="#263238" stroke-miterlimit="10"/>
<path d="M168.989 309.466L174.58 307.655H432.935L436.612 309.443L168.989 309.466Z" fill="#263238"/>
<path opacity="0.2" d="M359.982 498.08L354.542 466.101C353.341 461.335 350.788 456.996 347.176 453.581C336.353 443.393 322.05 432.933 321.436 419.621C320.496 399.245 317.236 399.822 317.584 394.785C318.998 392.38 320.242 389.884 321.308 387.314C321.981 385.338 322.509 383.318 322.886 381.269C323.107 380.263 323.705 379.374 324.564 378.777C325.423 378.18 326.479 377.918 327.526 378.043C328.995 378.232 330.369 378.861 331.458 379.843C333.372 381.835 334.427 384.47 334.404 387.201C334.371 389.902 333.981 392.588 333.244 395.193C335.066 399.695 336.237 404.423 336.724 409.241C337.966 405.505 338.905 401.735 340.146 398.011C340.402 397.875 340.309 397.581 340.552 397.445C338.801 393.778 340.286 393.981 336.817 385.91C331.017 372.326 324.475 359.229 319.823 342.158C319.445 340.575 319.481 338.925 319.928 337.359C321.61 332.48 326.76 333.6 329.01 336.442C329.599 337.191 330.069 338.023 330.402 338.909C333.458 346.18 337.173 353.17 341.504 359.795L354.136 378.586C354.136 378.586 358.532 375.066 359.205 373.492C359.866 371.907 360.191 359.15 360.191 359.15C360.191 359.15 359.194 361.538 356.978 361.414C355.377 361.3 352.129 362.206 349.821 359.67C348.925 358.645 348.415 357.352 348.377 356.005C348.339 354.658 348.775 353.339 349.612 352.267L355.331 344.728C356.584 343.764 358.084 343.156 359.668 342.97C361.252 342.784 362.858 343.028 364.309 343.675C368.002 345.488 371.405 347.814 374.413 350.58C377.432 350.497 380.434 351.062 383.206 352.233C387.254 354.135 391.5 359.591 391.5 359.591C391.5 359.591 396.221 359.874 398.344 361.38C398.877 361.753 406.081 372.7 403.482 381.224C401.94 386.306 400.988 393.676 400.292 395.668L396.754 445.578L403.888 478.406L388.634 486.703C383.062 489.736 377.228 492.285 371.2 494.322L359.982 498.08Z" fill="black"/>
<path d="M403.297 439.759L403.436 389.714C403.993 387.699 404.445 380.273 405.628 375.099C407.647 366.428 399.712 355.969 399.156 355.629C396.928 354.282 392.196 354.305 392.196 354.305C392.196 354.305 387.556 349.131 383.414 347.513C380.573 346.508 377.54 346.121 374.529 346.381C371.34 343.811 367.784 341.71 363.973 340.143C362.481 339.593 360.863 339.454 359.296 339.742C357.728 340.029 356.272 340.732 355.087 341.773L349.902 349.697C349.137 350.821 348.79 352.167 348.919 353.51C349.048 354.853 349.645 356.112 350.61 357.078C353.092 359.467 356.27 358.346 357.871 358.346C360.087 358.346 360.922 355.901 360.922 355.901C360.922 355.901 361.467 368.647 360.922 370.266C360.354 371.885 356.201 375.677 356.201 375.677L342.281 357.757C337.5 351.432 333.318 344.695 329.788 337.63C329.387 336.771 328.86 335.974 328.222 335.264C325.786 332.57 320.577 331.789 319.22 336.759C318.886 338.352 318.962 340.001 319.44 341.558C325.24 358.289 332.641 370.934 339.381 384.11C343.383 391.932 341.898 391.842 343.893 395.374C343.661 395.532 343.777 395.826 343.522 395.974C342.548 399.777 341.863 403.592 340.877 407.395C340.06 402.62 338.565 397.98 336.434 393.608C336.997 390.959 337.204 388.249 337.049 385.548C336.875 382.818 335.629 380.26 333.569 378.405C332.416 377.495 331.001 376.957 329.521 376.865C328.459 376.798 327.41 377.124 326.584 377.779C325.758 378.434 325.216 379.369 325.066 380.397C324.834 382.464 324.446 384.51 323.906 386.521C323.018 389.155 321.948 391.726 320.705 394.219C320.705 399.268 323.906 398.441 326.238 418.749C328.048 434.597 348.928 445.023 360.296 456.445L372.406 493.643C386.583 488.047 400.165 481.113 412.96 472.938L403.297 439.759Z" fill="white"/>
<mask id="mask0_34_135" style="mask-type:luminance" maskUnits="userSpaceOnUse" x="319" y="333" width="94" height="161">
<path d="M403.297 439.759L403.436 389.714C403.993 387.699 404.445 380.273 405.628 375.099C407.647 366.428 399.712 355.969 399.156 355.629C396.928 354.282 392.196 354.305 392.196 354.305C392.196 354.305 387.556 349.131 383.414 347.513C380.573 346.508 377.54 346.121 374.529 346.381C371.34 343.811 367.784 341.71 363.973 340.143C362.481 339.593 360.863 339.454 359.296 339.742C357.728 340.029 356.272 340.732 355.087 341.773L349.902 349.697C349.137 350.821 348.79 352.167 348.919 353.51C349.048 354.853 349.645 356.112 350.61 357.078C353.092 359.467 356.27 358.346 357.871 358.346C360.087 358.346 360.922 355.901 360.922 355.901C360.922 355.901 361.467 368.647 360.922 370.266C360.354 371.885 356.201 375.677 356.201 375.677L342.281 357.757C337.5 351.432 333.318 344.695 329.788 337.63C329.387 336.771 328.86 335.974 328.222 335.264C325.786 332.57 320.577 331.789 319.22 336.759C318.886 338.352 318.962 340.001 319.44 341.558C325.24 358.289 332.641 370.934 339.381 384.11C343.383 391.932 341.898 391.842 343.893 395.374C343.661 395.532 343.777 395.826 343.522 395.974C342.548 399.777 341.863 403.592 340.877 407.395C340.06 402.62 338.565 397.98 336.434 393.608C336.997 390.959 337.204 388.249 337.049 385.548C336.875 382.818 335.629 380.26 333.569 378.405C332.416 377.495 331.001 376.957 329.521 376.865C328.459 376.798 327.41 377.124 326.584 377.779C325.758 378.434 325.216 379.369 325.066 380.397C324.834 382.464 324.446 384.51 323.906 386.521C323.018 389.155 321.948 391.726 320.705 394.219C320.705 399.268 323.906 398.441 326.238 418.749C328.048 434.597 348.928 445.023 360.296 456.445L372.406 493.643C386.583 488.047 400.165 481.113 412.96 472.938L403.297 439.759Z" fill="white"/>
</mask>
<g mask="url(#mask0_34_135)">
<path d="M397.358 371.76C397.859 370.242 398.777 368.887 400.014 367.843C400.649 367.343 401.448 367.083 402.263 367.11C403.079 367.137 403.858 367.449 404.457 367.991C403.591 365.402 402.67 362.825 401.696 360.259C401.114 358.248 400.002 356.422 398.471 354.961C396.824 353.648 394.11 353.376 392.671 354.961C393.678 360.879 393.787 366.909 392.996 372.858C392.567 376.073 392.01 379.763 394.226 382.174C394.84 382.661 395.908 381.79 395.513 381.122C395.328 380.805 394.678 380.782 394.353 380.805C395.097 377.714 396.102 374.689 397.358 371.76Z" fill="#575EFF"/>
<path d="M397.358 371.76C397.859 370.242 398.777 368.887 400.014 367.843C400.649 367.343 401.448 367.083 402.263 367.11C403.079 367.137 403.858 367.449 404.457 367.991C403.591 365.402 402.67 362.825 401.696 360.259C401.114 358.248 400.002 356.422 398.471 354.961C396.824 353.648 394.11 353.376 392.671 354.961C393.678 360.879 393.787 366.909 392.996 372.858C392.567 376.073 392.01 379.763 394.226 382.174C394.84 382.661 395.908 381.79 395.513 381.122C395.328 380.805 394.678 380.782 394.353 380.805C395.097 377.714 396.102 374.689 397.358 371.76Z" fill="#575EFF"/>
<path opacity="0.5" d="M397.358 371.76C397.859 370.242 398.777 368.887 400.014 367.843C400.649 367.343 401.448 367.083 402.263 367.11C403.079 367.137 403.858 367.449 404.457 367.991C403.591 365.402 402.67 362.825 401.696 360.259C401.114 358.248 400.002 356.422 398.471 354.961C396.824 353.648 394.11 353.376 392.671 354.961C393.678 360.879 393.787 366.909 392.996 372.858C392.567 376.073 392.01 379.763 394.226 382.174C394.84 382.661 395.908 381.79 395.513 381.122C395.328 380.805 394.678 380.782 394.353 380.805C395.097 377.714 396.102 374.689 397.358 371.76Z" fill="white"/>
<path d="M378.844 366.394C378.825 368.575 379.035 370.753 379.47 372.892C379.696 373.962 380.141 374.975 380.779 375.872C381.417 376.769 382.235 377.531 383.182 378.111C382.022 373.9 382.649 369.428 383.275 365.115L384.435 357.191C384.492 356.264 384.775 355.364 385.259 354.565C385.507 354.172 385.884 353.874 386.329 353.717C386.773 353.561 387.259 353.557 387.706 353.705C386.546 354.361 385.073 353.478 384.377 352.369C383.856 351.174 383.263 350.01 382.602 348.882C381.048 346.935 377.73 346.505 375.434 347.026C376.118 353.535 378.577 359.716 378.844 366.394Z" fill="#575EFF"/>
<path d="M378.844 366.394C378.825 368.575 379.035 370.753 379.47 372.892C379.696 373.962 380.141 374.975 380.779 375.872C381.417 376.769 382.235 377.531 383.182 378.111C382.022 373.9 382.649 369.428 383.275 365.115L384.435 357.191C384.492 356.264 384.775 355.364 385.259 354.565C385.507 354.172 385.884 353.874 386.329 353.717C386.773 353.561 387.259 353.557 387.706 353.705C386.546 354.361 385.073 353.478 384.377 352.369C383.856 351.174 383.263 350.01 382.602 348.882C381.048 346.935 377.73 346.505 375.434 347.026C376.118 353.535 378.577 359.716 378.844 366.394Z" fill="#575EFF"/>
<g opacity="0.5">
<path d="M378.844 366.394C378.825 368.575 379.035 370.753 379.47 372.892C379.696 373.962 380.141 374.975 380.779 375.872C381.417 376.769 382.235 377.531 383.182 378.111C382.022 373.9 382.649 369.428 383.275 365.115L384.435 357.191C384.492 356.264 384.775 355.364 385.259 354.565C385.507 354.172 385.884 353.874 386.329 353.717C386.773 353.561 387.259 353.557 387.706 353.705C386.546 354.361 385.073 353.478 384.377 352.369C383.856 351.174 383.263 350.01 382.602 348.882C381.048 346.935 377.73 346.505 375.434 347.026C376.118 353.535 378.577 359.716 378.844 366.394Z" fill="white"/>
</g>
<path d="M359.913 348.939C359.235 348.308 358.801 347.469 358.683 346.562C358.622 346.115 358.471 345.685 358.238 345.297C358.005 344.908 357.695 344.569 357.326 344.298C353.765 346.505 355.714 352.969 352.106 355.108C351.41 355.527 350.517 355.765 350.134 356.467C349.984 356.798 349.94 357.165 350.008 357.521C350.077 357.877 350.254 358.204 350.517 358.459C351.058 358.959 351.749 359.277 352.489 359.365C353.934 359.56 355.406 359.364 356.744 358.796C358.083 358.229 359.235 357.314 360.075 356.15C361.49 354.248 362.465 351.192 361.769 348.939C361.489 349.105 361.168 349.193 360.841 349.193C360.513 349.193 360.192 349.105 359.913 348.939Z" fill="#575EFF"/>
<path d="M322.874 391.264C322.874 391.502 322.77 391.808 322.967 391.966C323.164 392.125 323.674 391.83 323.906 391.513C324.677 390.489 325.757 389.726 326.996 389.334C328.235 388.942 329.569 388.94 330.808 389.329C331.748 389.329 332.073 387.914 331.458 387.223C331.108 386.917 330.695 386.686 330.248 386.546C329.8 386.406 329.327 386.359 328.86 386.408C327.923 386.513 326.975 386.36 326.122 385.967C325.649 385.668 325.283 385.232 325.076 384.721C324.868 384.21 324.828 383.648 324.962 383.114C324.37 385.842 323.64 388.548 322.874 391.264Z" fill="#575EFF"/>
<g opacity="0.5">
<path d="M359.913 348.939C359.235 348.308 358.801 347.469 358.683 346.562C358.622 346.115 358.471 345.685 358.238 345.297C358.005 344.908 357.695 344.569 357.326 344.298C353.765 346.505 355.714 352.969 352.106 355.108C351.41 355.527 350.517 355.765 350.134 356.467C349.984 356.798 349.94 357.165 350.008 357.521C350.077 357.877 350.254 358.204 350.517 358.459C351.058 358.959 351.749 359.277 352.489 359.365C353.934 359.56 355.406 359.364 356.744 358.796C358.083 358.229 359.235 357.314 360.075 356.15C361.49 354.248 362.465 351.192 361.769 348.939C361.489 349.105 361.168 349.193 360.841 349.193C360.513 349.193 360.192 349.105 359.913 348.939Z" fill="white"/>
<path d="M322.874 391.264C322.874 391.502 322.77 391.808 322.967 391.966C323.164 392.125 323.674 391.83 323.906 391.513C324.677 390.489 325.757 389.726 326.996 389.334C328.235 388.942 329.569 388.94 330.808 389.329C331.748 389.329 332.073 387.914 331.458 387.223C331.108 386.917 330.695 386.686 330.248 386.546C329.8 386.406 329.327 386.359 328.86 386.408C327.923 386.513 326.975 386.36 326.122 385.967C325.649 385.668 325.283 385.232 325.076 384.721C324.868 384.21 324.828 383.648 324.962 383.114C324.37 385.842 323.64 388.548 322.874 391.264Z" fill="white"/>
</g>
<path d="M370.109 348.079C368.079 347.818 365.933 347.762 364.158 346.754C361.954 345.486 360.435 342.792 357.871 342.679C355.551 342.577 353.892 344.615 352.605 346.449C352.617 345.06 353.061 343.708 353.877 342.57C354.693 341.432 355.843 340.563 357.175 340.075C359.882 339.155 362.845 339.268 365.469 340.392C368.06 341.526 370.48 343 372.661 344.773C373.603 345.383 374.427 346.149 375.097 347.037C377.962 351.486 371.896 348.316 370.109 348.079Z" fill="#575EFF"/>
<path opacity="0.5" d="M370.109 348.079C368.079 347.818 365.933 347.762 364.158 346.754C361.954 345.486 360.435 342.792 357.871 342.679C355.551 342.577 353.892 344.615 352.605 346.449C352.617 345.06 353.061 343.708 353.877 342.57C354.693 341.432 355.843 340.563 357.175 340.075C359.882 339.155 362.845 339.268 365.469 340.392C368.06 341.526 370.48 343 372.661 344.773C373.603 345.383 374.427 346.149 375.097 347.037C377.962 351.486 371.896 348.316 370.109 348.079Z" fill="white"/>
<path d="M333.824 412.365C333.962 412.119 334.086 411.866 334.196 411.607C334.072 411.691 333.974 411.806 333.909 411.938C333.844 412.071 333.815 412.218 333.824 412.365Z" fill="#575EFF"/>
<path d="M337.27 394.83C337.038 392.046 337.444 389.238 337.328 386.442C337.212 383.646 336.458 380.703 334.37 378.779C331.377 376.028 323.176 377.431 325.925 382.661C326.326 383.375 326.977 383.924 327.758 384.208C328.54 384.493 329.4 384.494 330.182 384.212C330.555 384.04 330.89 383.798 331.166 383.498C331.442 383.198 331.654 382.848 331.789 382.467C331.924 382.086 331.98 381.683 331.953 381.281C331.926 380.879 331.817 380.486 331.632 380.126C333.244 382.618 334.04 385.53 333.914 388.474C333.787 391.419 332.745 394.256 330.924 396.608C333.008 398.46 334.445 400.903 335.031 403.594C335.618 406.284 335.326 409.087 334.196 411.607C334.477 411.418 334.811 411.317 335.153 411.317C335.494 411.317 335.828 411.418 336.11 411.607C336.823 412.318 337.331 413.201 337.583 414.165C337.989 415.082 338.743 416.033 339.764 415.965C341.156 412.625 340.703 408.833 339.764 405.347C338.824 401.86 337.56 398.464 337.27 394.83Z" fill="#575EFF"/>
<path d="M367.279 342.339C365.683 341.132 363.792 340.351 361.792 340.075L367.279 342.339Z" fill="#575EFF"/>
<path d="M380.92 377.76C380.48 375.835 379.563 374.047 379.018 372.1C377.754 367.674 378.554 362.942 377.974 358.38C377.184 352.422 374.103 346.979 369.355 343.154L367.279 342.294C369.289 343.781 370.754 345.861 371.455 348.226C373.067 353.637 373.566 359.274 374.285 364.866C375.375 373.508 376.983 382.081 379.099 390.54C380.48 386.374 381.883 382.005 380.92 377.76Z" fill="#575EFF"/>
<path d="M358.834 357.633C360.225 356.441 361.1 354.778 361.282 352.98C361.443 351.389 361.4 349.784 361.154 348.203C361.034 348.569 360.782 348.879 360.445 349.077C360.108 349.275 359.708 349.346 359.321 349.279C358.368 348.918 357.587 348.224 357.129 347.332L356.711 348.747L356.537 347.977L355.981 348.667C356.804 350.931 357.605 353.569 356.329 355.64C355.641 356.598 354.751 357.401 353.719 357.995C354.503 358.463 355.419 358.68 356.336 358.615C357.253 358.55 358.127 358.206 358.834 357.633Z" fill="#575EFF"/>
<path d="M361.084 347.637L361.154 348.203C361.195 348.012 361.17 347.814 361.084 347.637Z" fill="#575EFF"/>
<path d="M355.018 370.549C350.958 362.749 346.898 354.95 342.408 347.365C339.904 342.867 336.935 338.63 333.546 334.721C331.992 333.034 327.56 329.118 325.113 331.699C323.477 333.419 325.623 336.544 323.616 338.411C324.08 338.411 326.342 338.196 326.586 338.491C331.708 344.706 334.459 352.465 334.37 360.44C336.005 359.184 338.256 360.927 339.532 362.534C347.405 372.39 354.761 382.629 361.572 393.211C360.249 388.536 360.214 383.567 358.799 378.926C357.799 376.028 356.533 373.225 355.018 370.549Z" fill="#575EFF"/>
<path d="M402.276 389.555C404.351 384.56 405.577 379.268 405.907 373.888C406.129 368.916 404.864 363.987 402.264 359.704C401.592 358.652 398.784 354.305 397.288 354.656C394.562 355.29 398.135 359.908 398.761 361.063C401.081 365.421 403.529 370.028 403.401 374.952C403.285 378.745 401.65 382.31 400.339 385.876C399.348 388.356 398.795 390.982 398.703 393.642C398.506 393.936 398.32 394.242 398.1 394.513C396.369 396.923 393.765 398.601 390.815 399.211C391.975 395.815 393.054 392.419 394.179 389.023C394.585 387.812 394.724 386.159 394.005 385.321C394.245 384.866 394.368 384.362 394.365 383.85C394.205 382.93 393.871 382.047 393.379 381.246C391.824 377.986 392.346 374.194 392.729 370.617C393.193 366.202 393.367 361.663 392.045 357.418C390.722 353.173 387.648 349.233 383.333 347.83L384.493 348.962L383.032 347.92L385.746 353.444L384.748 354.837C386.245 354.067 388.159 355.176 388.843 356.682C389.38 358.254 389.496 359.933 389.18 361.561C388.305 370.732 388.766 379.978 390.548 389.023C390.489 391.135 389.917 393.203 388.878 395.057C388.315 396.058 387.469 396.879 386.441 397.423C385.412 397.967 384.245 398.211 383.078 398.124C383.334 397.015 383.26 395.857 382.863 394.788C382.466 393.719 381.764 392.783 380.839 392.091C378.519 395.26 379.888 400.185 380.236 403.796C380.777 409.265 381.679 414.695 382.939 420.051C383.305 415.415 384.299 410.848 385.897 406.467C387.15 410.935 388.41 415.406 389.678 419.881C389.617 418.624 389.864 417.371 390.398 416.225C390.679 415.661 391.151 415.209 391.735 414.945C392.318 414.681 392.976 414.622 393.599 414.776C394.061 415.021 394.468 415.354 394.797 415.754C395.125 416.154 395.369 416.615 395.513 417.108C398.797 424.855 399.606 433.39 397.833 441.593C399.388 442.442 401.452 441.423 402.322 439.907C403.04 438.306 403.324 436.551 403.146 434.813C402.829 419.742 402.539 404.656 402.276 389.555Z" fill="#575EFF"/>
<path d="M362.952 394.344C362.21 395.611 365.272 400.66 365.748 401.86C368.3 407.95 370.856 414.044 373.415 420.142C372.565 412.106 370.566 404.227 367.476 396.732C366.954 395.476 364.425 391.819 362.952 394.344Z" fill="#575EFF"/>
<path d="M366.919 362.059C366.478 362.704 365.864 363.497 365.11 363.27C364.356 363.044 364.275 362.138 364.286 361.425C364.363 357.191 364.437 352.954 364.507 348.713C361.027 351.169 361.444 354.373 361.2 358.04C361.061 360.157 361.688 370.266 360.203 371.5C363.678 368.606 366.6 365.133 368.833 361.244C368.23 360.757 367.348 361.414 366.919 362.059Z" fill="#575EFF"/>
<g opacity="0.5">
<path d="M333.824 412.365C333.962 412.119 334.086 411.866 334.196 411.607C334.072 411.691 333.974 411.806 333.909 411.938C333.844 412.071 333.815 412.218 333.824 412.365Z" fill="white"/>
<path d="M337.27 394.83C337.038 392.046 337.444 389.238 337.328 386.442C337.212 383.646 336.458 380.703 334.37 378.779C331.377 376.028 323.176 377.431 325.925 382.661C326.326 383.375 326.977 383.924 327.758 384.208C328.54 384.493 329.4 384.494 330.182 384.212C330.555 384.04 330.89 383.798 331.166 383.498C331.442 383.198 331.654 382.848 331.789 382.467C331.924 382.086 331.98 381.683 331.953 381.281C331.926 380.879 331.817 380.486 331.632 380.126C333.244 382.618 334.04 385.53 333.914 388.474C333.787 391.419 332.745 394.256 330.924 396.608C333.008 398.46 334.445 400.903 335.031 403.594C335.618 406.284 335.326 409.087 334.196 411.607C334.477 411.418 334.811 411.317 335.153 411.317C335.494 411.317 335.828 411.418 336.11 411.607C336.823 412.318 337.331 413.201 337.583 414.165C337.989 415.082 338.743 416.033 339.764 415.965C341.156 412.625 340.703 408.833 339.764 405.347C338.824 401.86 337.56 398.464 337.27 394.83Z" fill="white"/>
<path d="M367.279 342.339C365.683 341.132 363.792 340.351 361.792 340.075L367.279 342.339Z" fill="white"/>
<path d="M380.92 377.76C380.48 375.835 379.563 374.047 379.018 372.1C377.754 367.674 378.554 362.942 377.974 358.38C377.184 352.422 374.103 346.979 369.355 343.154L367.279 342.294C369.289 343.781 370.754 345.861 371.455 348.226C373.067 353.637 373.566 359.274 374.285 364.866C375.375 373.508 376.983 382.081 379.099 390.54C380.48 386.374 381.883 382.005 380.92 377.76Z" fill="white"/>
<path d="M358.834 357.633C360.225 356.441 361.1 354.778 361.282 352.98C361.443 351.389 361.4 349.784 361.154 348.203C361.034 348.569 360.782 348.879 360.445 349.077C360.108 349.275 359.708 349.346 359.321 349.279C358.368 348.918 357.587 348.224 357.129 347.332L356.711 348.747L356.537 347.977L355.981 348.667C356.804 350.931 357.605 353.569 356.329 355.64C355.641 356.598 354.751 357.401 353.719 357.995C354.503 358.463 355.419 358.68 356.336 358.615C357.253 358.55 358.127 358.206 358.834 357.633Z" fill="white"/>
<path d="M361.084 347.637L361.154 348.203C361.195 348.012 361.17 347.814 361.084 347.637Z" fill="white"/>
<path d="M355.018 370.549C350.958 362.749 346.898 354.95 342.408 347.365C339.904 342.867 336.935 338.63 333.546 334.721C331.992 333.034 327.56 329.118 325.113 331.699C323.477 333.419 325.623 336.544 323.616 338.411C324.08 338.411 326.342 338.196 326.586 338.491C331.708 344.706 334.459 352.465 334.37 360.44C336.005 359.184 338.256 360.927 339.532 362.534C347.405 372.39 354.761 382.629 361.572 393.211C360.249 388.536 360.214 383.567 358.799 378.926C357.799 376.028 356.533 373.225 355.018 370.549Z" fill="white"/>
<path d="M402.276 389.555C404.351 384.56 405.577 379.268 405.907 373.888C406.129 368.916 404.864 363.987 402.264 359.704C401.592 358.652 398.784 354.305 397.288 354.656C394.562 355.29 398.135 359.908 398.761 361.063C401.081 365.421 403.529 370.028 403.401 374.952C403.285 378.745 401.65 382.31 400.339 385.876C399.348 388.356 398.795 390.982 398.703 393.642C398.506 393.936 398.32 394.242 398.1 394.513C396.369 396.923 393.765 398.601 390.815 399.211C391.975 395.815 393.054 392.419 394.179 389.023C394.585 387.812 394.724 386.159 394.005 385.321C394.245 384.866 394.368 384.362 394.365 383.85C394.205 382.93 393.871 382.047 393.379 381.246C391.824 377.986 392.346 374.194 392.729 370.617C393.193 366.202 393.367 361.663 392.045 357.418C390.722 353.173 387.648 349.233 383.333 347.83L384.493 348.962L383.032 347.92L385.746 353.444L384.748 354.837C386.245 354.067 388.159 355.176 388.843 356.682C389.38 358.254 389.496 359.933 389.18 361.561C388.305 370.732 388.766 379.978 390.548 389.023C390.489 391.135 389.917 393.203 388.878 395.057C388.315 396.058 387.469 396.879 386.441 397.423C385.412 397.967 384.245 398.211 383.078 398.124C383.334 397.015 383.26 395.857 382.863 394.788C382.466 393.719 381.764 392.783 380.839 392.091C378.519 395.26 379.888 400.185 380.236 403.796C380.777 409.265 381.679 414.695 382.939 420.051C383.305 415.415 384.299 410.848 385.897 406.467C387.15 410.935 388.41 415.406 389.678 419.881C389.617 418.624 389.864 417.371 390.398 416.225C390.679 415.661 391.151 415.209 391.735 414.945C392.318 414.681 392.976 414.622 393.599 414.776C394.061 415.021 394.468 415.354 394.797 415.754C395.125 416.154 395.369 416.615 395.513 417.108C398.797 424.855 399.606 433.39 397.833 441.593C399.388 442.442 401.452 441.423 402.322 439.907C403.04 438.306 403.324 436.551 403.146 434.813C402.829 419.742 402.539 404.656 402.276 389.555Z" fill="white"/>
<path d="M362.952 394.344C362.21 395.611 365.272 400.66 365.748 401.86C368.3 407.95 370.856 414.044 373.415 420.142C372.565 412.106 370.566 404.227 367.476 396.732C366.954 395.476 364.425 391.819 362.952 394.344Z" fill="white"/>
<path d="M366.919 362.059C366.478 362.704 365.864 363.497 365.11 363.27C364.356 363.044 364.275 362.138 364.286 361.425C364.363 357.191 364.437 352.954 364.507 348.713C361.027 351.169 361.444 354.373 361.2 358.04C361.061 360.157 361.688 370.266 360.203 371.5C363.678 368.606 366.6 365.133 368.833 361.244C368.23 360.757 367.348 361.414 366.919 362.059Z" fill="white"/>
</g>
</g>
<path d="M324.301 390.642C322.955 391.682 321.805 392.942 320.902 394.366L324.301 390.642Z" fill="white"/>
<path d="M372.487 493.654L360.377 456.456C349.009 445.034 328.129 434.586 326.319 418.76C323.999 398.452 320.786 399.279 320.786 394.23C322.029 391.737 323.099 389.166 323.988 386.532C324.528 384.521 324.915 382.475 325.148 380.408C325.298 379.38 325.84 378.445 326.665 377.79C327.491 377.135 328.54 376.809 329.602 376.876C331.083 376.968 332.497 377.506 333.651 378.416C335.71 380.271 336.956 382.829 337.131 385.559C337.285 388.26 337.079 390.97 336.516 393.619C338.646 397.991 340.142 402.631 340.959 407.406C341.945 403.603 342.629 399.788 343.603 395.985C343.859 395.837 343.743 395.543 343.975 395.385C341.979 391.853 343.464 391.989 339.462 384.121C332.723 370.945 325.333 358.3 319.522 341.569C319.043 340.012 318.968 338.363 319.301 336.77C320.659 331.8 325.867 332.581 328.303 335.275C328.941 335.985 329.469 336.782 329.869 337.641C333.399 344.706 337.581 351.443 342.362 357.768L356.282 375.688C356.282 375.688 360.435 371.896 361.003 370.277C361.549 368.658 361.003 355.912 361.003 355.912C361.003 355.912 360.168 358.357 357.953 358.357C356.352 358.357 353.173 359.489 350.691 357.089C349.726 356.123 349.129 354.864 349 353.521C348.872 352.178 349.219 350.832 349.983 349.708L355.169 341.784C356.354 340.743 357.81 340.04 359.377 339.753C360.944 339.465 362.562 339.604 364.054 340.154C367.865 341.721 371.421 343.822 374.61 346.392C377.621 346.132 380.654 346.519 383.496 347.524C387.672 349.165 392.277 354.316 392.277 354.316C392.277 354.316 396.998 354.316 399.237 355.64C399.794 355.98 407.728 366.439 405.71 375.111C404.55 380.284 404.074 387.71 403.517 389.725L403.378 439.77L412.96 472.938" stroke="#263238" stroke-miterlimit="10"/>
<path d="M375.84 348.192C377.883 355.575 378.943 363.184 378.995 370.832C378.929 372.113 379.07 373.397 379.413 374.635C379.594 375.252 379.933 375.813 380.397 376.267C380.862 376.72 381.437 377.051 382.069 377.228" stroke="#263238" stroke-miterlimit="10"/>
<path d="M392.207 355.629C395.687 362.715 392.126 378.552 392.381 379.661C392.489 380.225 392.72 380.759 393.058 381.228C393.397 381.697 393.834 382.089 394.342 382.378" stroke="#263238" stroke-miterlimit="10"/>
<path d="M362.302 347.23C361.896 349.494 361.56 352.086 361.142 354.339C359.79 353.206 358.684 351.822 357.887 350.267C357.09 348.712 356.619 347.017 356.502 345.283" stroke="#263238" stroke-miterlimit="10"/>
<path d="M340.077 407.622L337.56 408.652" stroke="#263238" stroke-miterlimit="10"/>
<path d="M340.715 409.58C340.315 411.47 340.315 413.419 340.715 415.308" stroke="#263238" stroke-miterlimit="10"/>
<path d="M355.377 388.435C356.305 390.053 357.222 391.683 358.15 393.313" stroke="#263238" stroke-miterlimit="10"/>
<path d="M360.76 370.572L363.521 366.768" stroke="#263238" stroke-miterlimit="10"/>
<path d="M399.539 388.435L398.703 391.412" stroke="#263238" stroke-miterlimit="10"/>
<path d="M392.787 380.273C393.561 377.737 394.377 375.201 395.235 372.666" stroke="#263238" stroke-miterlimit="10"/>
<path d="M400.954 366.768C401.688 366.396 402.544 366.321 403.334 366.561C404.125 366.8 404.787 367.334 405.176 368.047" stroke="#263238" stroke-miterlimit="10"/>
<path d="M384.285 353.784C385.247 353.521 386.262 353.498 387.237 353.715C388.211 353.933 389.114 354.384 389.864 355.029" stroke="#263238" stroke-miterlimit="10"/>
<path d="M332.618 361.334C333.518 360.371 334.639 359.629 335.889 359.169C337.139 358.709 338.482 358.543 339.81 358.685" stroke="#263238" stroke-miterlimit="10"/>
<path d="M322.143 339.985C322.972 339.401 323.912 338.982 324.907 338.753C325.902 338.524 326.934 338.488 327.943 338.649" stroke="#263238" stroke-miterlimit="10"/>
<path d="M324.301 390.642C322.955 391.682 321.805 392.942 320.902 394.366" stroke="#263238" stroke-miterlimit="10"/>
<path d="M325.415 385.503C327.247 384.223 330.171 387.076 331.853 385.616C332.151 385.288 332.359 384.892 332.458 384.464C332.558 384.037 332.545 383.592 332.421 383.171C332.172 382.329 332.059 381.454 332.085 380.578" stroke="#263238" stroke-miterlimit="10"/>
<path d="M377.139 377.647C379.37 382.168 379.824 387.332 378.415 392.159" stroke="#263238" stroke-miterlimit="10"/>
<path d="M390.618 384.631C390.978 386.775 390.568 388.974 389.458 390.857" stroke="#263238" stroke-miterlimit="10"/>
<path opacity="0.2" d="M278.458 401.622C278.562 402.407 278.527 403.204 278.353 403.977C277.599 407.373 275.418 417.312 274.618 422.745C273.667 429.379 262.682 449.913 262.682 449.913C262.682 449.913 252.566 462.184 247.416 468.569C244.887 471.704 240.885 484.417 237.486 496.484C233.194 495.216 228.941 493.85 224.726 492.386C221.246 491.175 217.766 489.896 214.286 488.571C208.078 486.054 202.028 483.182 196.167 479.968C198.093 473.176 199.38 467.89 199.357 467.584C199.299 466.871 203.487 459.003 203.487 459.003L199.833 412.048L197.675 404.905C196.554 401.217 195.842 397.422 195.552 393.585C195.099 387.76 195.604 381.901 197.049 376.231L203.348 367.108L206.294 366.892L215.412 354.44C215.412 354.44 220.342 352.992 221.606 356.614C222.87 360.236 217.5 367.006 217.5 367.006L215.655 378.179L220.04 388.638L222.36 389.453C222.36 389.453 223.126 371.036 222.604 367.357L227.36 350.614C228.786 347.873 230.048 345.053 231.141 342.17C232.023 339.351 237.208 336.51 240.189 341.502C240.695 342.407 240.998 343.407 241.078 344.436C241.158 345.464 241.013 346.498 240.653 347.467C239.435 350.92 238.426 353.637 238.426 353.637C238.426 353.637 237.266 367.877 236.976 368.274C236.686 368.67 239.122 389.476 239.122 389.476L241.024 390.302L241.697 370.436L245.653 351.769C245.653 351.769 245.328 342.792 251.812 343.845C252.813 343.808 253.802 344.064 254.651 344.581C255.501 345.097 256.173 345.85 256.58 346.743C258.308 349.969 256.661 371.454 256.661 371.454L258.262 393.664L260.826 410.791L263.842 399.053C263.842 399.053 264.016 382.231 274.896 380.793C274.896 380.793 278.133 380.227 278.794 382.424C279.455 384.62 277.182 389.102 277.506 393.404C277.796 396.46 278.237 399.868 278.458 401.622Z" fill="black"/>
<path d="M275.152 380.827C274.653 378.563 271.394 378.914 271.394 378.914C260.432 379.548 258.959 396.313 258.959 396.313L255.026 407.792L253.866 390.517L253.982 368.251C253.982 368.251 257.3 346.947 255.827 343.607C255.49 342.686 254.878 341.885 254.069 341.308C253.26 340.731 252.292 340.404 251.291 340.37C244.911 338.808 244.54 347.784 244.54 347.784L239.157 366.1L236.942 385.853L235.109 384.903C235.109 384.903 234.239 363.938 234.61 363.587C234.981 363.236 237.185 349.109 237.185 349.109C237.185 349.109 238.403 346.471 239.888 343.12C240.323 342.179 240.548 341.159 240.548 340.126C240.548 339.094 240.323 338.073 239.888 337.132C237.301 331.993 231.919 334.393 230.805 337.132C229.498 339.926 228.026 342.643 226.397 345.271L220.249 361.674C220.481 365.387 218.301 383.703 218.301 383.703L216.085 382.718L212.524 371.964L215.238 360.949C215.238 360.949 221.119 354.61 220.133 350.897C219.147 347.184 214.125 348.271 214.125 348.271L204.021 359.976H201.063L194.103 368.59C190.968 377.824 190.415 387.707 192.502 397.219L194.103 404.498V451.543C194.103 451.543 189.324 459.083 189.324 459.796C189.324 460.124 187.352 466.067 184.603 473.482C196.632 480.387 206.991 485.73 214.333 488.549C217.813 489.884 221.293 491.152 224.773 492.363C229.181 480.285 234.332 467.369 237.174 464.346C242.811 458.369 253.855 446.868 253.855 446.868C253.855 446.868 266.394 427.205 267.867 420.674C269.027 415.308 272.02 405.562 273.041 402.222C273.279 401.464 273.373 400.67 273.319 399.879C273.238 398.113 273.064 394.683 273.064 391.661C273.018 387.37 275.639 383.057 275.152 380.827Z" fill="white"/>
<mask id="mask1_34_135" style="mask-type:luminance" maskUnits="userSpaceOnUse" x="184" y="334" width="92" height="159">
<path d="M275.152 380.827C274.653 378.563 271.394 378.914 271.394 378.914C260.432 379.548 258.959 396.313 258.959 396.313L255.026 407.792L253.866 390.517L253.982 368.251C253.982 368.251 257.3 346.947 255.827 343.607C255.49 342.686 254.878 341.885 254.069 341.308C253.26 340.731 252.292 340.404 251.291 340.37C244.911 338.808 244.54 347.784 244.54 347.784L239.157 366.1L236.942 385.853L235.109 384.903C235.109 384.903 234.239 363.938 234.61 363.587C234.981 363.236 237.185 349.109 237.185 349.109C237.185 349.109 238.403 346.471 239.888 343.12C240.323 342.179 240.548 341.159 240.548 340.126C240.548 339.094 240.323 338.073 239.888 337.132C237.301 331.993 231.919 334.393 230.805 337.132C229.498 339.926 228.026 342.643 226.397 345.271L220.249 361.674C220.481 365.387 218.301 383.703 218.301 383.703L216.085 382.718L212.524 371.964L215.238 360.949C215.238 360.949 221.119 354.61 220.133 350.897C219.147 347.184 214.125 348.271 214.125 348.271L204.021 359.976H201.063L194.103 368.59C190.968 377.824 190.415 387.707 192.502 397.219L194.103 404.498V451.543C194.103 451.543 189.324 459.083 189.324 459.796C189.324 460.124 187.352 466.067 184.603 473.482C196.632 480.387 206.991 485.73 214.333 488.549C217.813 489.884 221.293 491.152 224.773 492.363C229.181 480.285 234.332 467.369 237.174 464.346C242.811 458.369 253.855 446.868 253.855 446.868C253.855 446.868 266.394 427.205 267.867 420.674C269.027 415.308 272.02 405.562 273.041 402.222C273.279 401.464 273.373 400.67 273.319 399.879C273.238 398.113 273.064 394.683 273.064 391.661C273.018 387.37 275.639 383.057 275.152 380.827Z" fill="white"/>
</mask>
<g mask="url(#mask1_34_135)">
<path d="M199.868 376.096C201.747 373.832 205.599 372.937 207.779 374.964C208.905 376.236 209.598 377.818 209.763 379.492C209.92 381.169 210.524 382.777 211.515 384.155C212.675 385.435 214.867 385.933 216.039 384.71C216.201 387.189 216.352 389.668 216.514 392.147C219.225 387.528 220.604 382.278 220.505 376.956C220.505 374.386 220.052 371.771 220.667 369.258C221.282 366.745 223.265 364.323 225.91 364.198C228.833 364.074 231.142 366.847 231.71 369.655C232.279 372.462 231.617 375.315 231.443 378.19C231.169 382.558 232.031 386.923 233.949 390.88L235.793 387.235C236.35 389.68 236.953 392.113 237.452 394.547C237.932 389.182 238.411 383.82 238.891 378.462C238.93 376.94 239.273 375.44 239.9 374.047C240.228 373.357 240.755 372.776 241.417 372.374C242.078 371.972 242.845 371.767 243.623 371.783C245.711 371.986 246.918 374.16 247.614 376.084C252.845 390.517 250.688 406.354 248.472 421.5C249.922 421.761 251.152 420.368 251.511 418.931C251.675 417.504 251.935 416.09 252.289 414.697C252.834 413.35 254.504 412.252 255.769 413.021C257.601 414.153 256.325 417.617 258.239 418.58C258.846 414.076 260.658 409.809 263.494 406.207C264.782 404.577 266.707 402.958 268.749 403.479C269.491 403.731 270.143 404.185 270.63 404.786C271.117 405.388 271.418 406.112 271.498 406.875C271.719 408.392 273.969 402.12 273.575 403.603C274.456 394.876 272.693 393.959 273.575 385.22C273.737 383.646 276.347 380.918 275.233 379.763C274.12 378.609 271.023 377.047 269.619 377.68C268.215 378.314 263.668 380.533 262.763 381.744C257.056 389.431 257.451 400.547 255.676 409.875C254.156 395.657 252.66 381.201 255.328 367.153C256.801 359.399 259.515 351.305 256.952 343.845C255.792 340.449 252.671 337.053 249.041 337.664C246.117 338.185 244.401 341.06 243.159 343.732C239.169 352.675 237.359 362.387 235.643 372.032L242.162 342.996C242.897 340.52 243.125 337.928 242.835 335.366C242.359 332.831 240.584 330.352 238.009 329.819C235.434 329.287 232.905 330.77 230.979 332.491C224.019 338.649 221.514 348.045 219.263 356.897C220.217 354.633 220.675 352.2 220.609 349.754C220.365 347.332 218.788 344.864 216.352 344.332C213.185 343.664 210.32 346.415 208.928 349.256C207.536 352.097 206.863 355.391 204.647 357.689C203.035 355.923 200.007 356.025 197.989 357.338C196.056 358.795 194.587 360.758 193.755 362.998C190.118 370.986 188.575 379.731 189.266 388.446C190.103 386.715 191.467 385.278 193.171 384.33C194.875 383.382 196.837 382.969 198.789 383.148C198.557 381.224 198.337 379.299 198.105 377.363" fill="#575EFF"/>
<path d="M207.513 394.513C207.408 395.94 207.315 397.366 207.211 398.792C207.341 398.508 207.536 398.257 207.78 398.056C208.024 397.856 208.312 397.713 208.621 397.636C208.93 397.56 209.253 397.553 209.565 397.616C209.878 397.679 210.171 397.81 210.424 398C210.392 397.066 210.646 396.143 211.155 395.351C211.526 394.491 211.561 393.268 210.703 392.861C209.844 392.453 208.684 393.517 208.139 394.491C208.139 394.14 208.058 393.789 208.011 393.427L207.513 394.513Z" fill="#575EFF"/>
<path d="M224.147 391.955C222.956 393.303 222.156 394.936 221.827 396.687C222.3 396.165 222.881 395.748 223.532 395.464C223.86 395.334 224.22 395.305 224.565 395.382C224.91 395.459 225.221 395.638 225.458 395.894C225.713 396.234 225.806 396.732 226.2 396.924C226.411 397.01 226.647 397.015 226.861 396.94C227.076 396.864 227.254 396.713 227.36 396.517C227.562 396.132 227.662 395.704 227.65 395.272C227.756 394.451 227.708 393.619 227.511 392.815C227.408 392.414 227.2 392.045 226.908 391.745C226.615 391.445 226.247 391.225 225.841 391.106C225.637 391.062 225.425 391.06 225.22 391.1C225.015 391.139 224.821 391.22 224.649 391.338C224.478 391.455 224.334 391.605 224.225 391.78C224.117 391.954 224.047 392.149 224.02 392.351L224.147 391.955Z" fill="#575EFF"/>
<path d="M240.259 395.849C238.991 397.516 238.155 399.458 237.823 401.509C238.669 401.309 239.448 400.899 240.085 400.32C240.727 399.728 241.534 399.334 242.405 399.188C242.616 399.163 242.83 399.179 243.035 399.235C243.24 399.291 243.432 399.385 243.599 399.514C243.766 399.642 243.905 399.802 244.009 399.983C244.113 400.164 244.179 400.363 244.203 400.569C244.101 399.611 244.132 398.644 244.296 397.694C244.461 396.741 244.389 395.763 244.087 394.842C243.922 394.385 243.621 393.988 243.221 393.702C242.822 393.415 242.344 393.252 241.848 393.234C241.606 393.248 241.371 393.317 241.16 393.435C240.95 393.554 240.772 393.719 240.639 393.917C240.506 394.115 240.422 394.341 240.394 394.576C240.367 394.811 240.396 395.049 240.48 395.272L240.259 395.849Z" fill="#575EFF"/>
<path d="M195.936 401.532C195.043 403.17 194.577 404.997 194.579 406.852C194.625 406.427 194.819 406.031 195.13 405.73C195.441 405.429 195.848 405.241 196.284 405.199C197.159 405.13 198.032 405.358 198.755 405.845C198.987 404.996 199.042 404.111 198.917 403.241C198.843 402.812 198.644 402.414 198.343 402.092C198.043 401.771 197.654 401.541 197.223 401.43C196.33 401.294 195.356 402.12 195.599 402.958L195.333 402.313L195.936 401.532Z" fill="#575EFF"/>
<path opacity="0.5" d="M199.868 376.096C201.747 373.832 205.599 372.937 207.779 374.964C208.905 376.236 209.598 377.818 209.763 379.492C209.92 381.169 210.524 382.777 211.515 384.155C212.675 385.435 214.867 385.933 216.039 384.71C216.201 387.189 216.352 389.668 216.514 392.147C219.225 387.528 220.604 382.278 220.505 376.956C220.505 374.386 220.052 371.771 220.667 369.258C221.282 366.745 223.265 364.323 225.91 364.198C228.833 364.074 231.142 366.847 231.71 369.655C232.279 372.462 231.617 375.315 231.443 378.19C231.169 382.558 232.031 386.923 233.949 390.88L235.793 387.235C236.35 389.68 236.953 392.113 237.452 394.547C237.932 389.182 238.411 383.82 238.891 378.462C238.93 376.94 239.273 375.44 239.9 374.047C240.228 373.357 240.755 372.776 241.417 372.374C242.078 371.972 242.845 371.767 243.623 371.783C245.711 371.986 246.918 374.16 247.614 376.084C252.845 390.517 250.688 406.354 248.472 421.5C249.922 421.761 251.152 420.368 251.511 418.931C251.675 417.504 251.935 416.09 252.289 414.697C252.834 413.35 254.504 412.252 255.769 413.021C257.601 414.153 256.325 417.617 258.239 418.58C258.846 414.076 260.658 409.809 263.494 406.207C264.782 404.577 266.707 402.958 268.749 403.479C269.491 403.731 270.143 404.185 270.63 404.786C271.117 405.388 271.418 406.112 271.498 406.875C271.719 408.392 273.969 402.12 273.575 403.603C274.456 394.876 272.693 393.959 273.575 385.22C273.737 383.646 276.347 380.918 275.233 379.763C274.12 378.609 271.023 377.047 269.619 377.68C268.215 378.314 263.668 380.533 262.763 381.744C257.056 389.431 257.451 400.547 255.676 409.875C254.156 395.657 252.66 381.201 255.328 367.153C256.801 359.399 259.515 351.305 256.952 343.845C255.792 340.449 252.671 337.053 249.041 337.664C246.117 338.185 244.401 341.06 243.159 343.732C239.169 352.675 237.359 362.387 235.643 372.032L242.162 342.996C242.897 340.52 243.125 337.928 242.835 335.366C242.359 332.831 240.584 330.352 238.009 329.819C235.434 329.287 232.905 330.77 230.979 332.491C224.019 338.649 221.514 348.045 219.263 356.897C220.217 354.633 220.675 352.2 220.609 349.754C220.365 347.332 218.788 344.864 216.352 344.332C213.185 343.664 210.32 346.415 208.928 349.256C207.536 352.097 206.863 355.391 204.647 357.689C203.035 355.923 200.007 356.025 197.989 357.338C196.056 358.795 194.587 360.758 193.755 362.998C190.118 370.986 188.575 379.731 189.266 388.446C190.103 386.715 191.467 385.278 193.171 384.33C194.875 383.382 196.837 382.969 198.789 383.148C198.557 381.224 198.337 379.299 198.105 377.363" fill="white"/>
<g opacity="0.5">
<path d="M207.513 394.513C207.408 395.94 207.315 397.366 207.211 398.792C207.341 398.508 207.536 398.257 207.78 398.056C208.024 397.856 208.312 397.713 208.621 397.636C208.93 397.56 209.253 397.553 209.565 397.616C209.878 397.679 210.171 397.81 210.424 398C210.392 397.066 210.646 396.143 211.155 395.351C211.526 394.491 211.561 393.268 210.703 392.861C209.844 392.453 208.684 393.517 208.139 394.491C208.139 394.14 208.058 393.789 208.011 393.427L207.513 394.513Z" fill="white"/>
<path d="M224.147 391.955C222.956 393.303 222.156 394.936 221.827 396.687C222.3 396.165 222.881 395.748 223.532 395.464C223.86 395.334 224.22 395.305 224.565 395.382C224.91 395.459 225.221 395.638 225.458 395.894C225.713 396.234 225.806 396.732 226.2 396.924C226.411 397.01 226.647 397.015 226.861 396.94C227.076 396.864 227.254 396.713 227.36 396.517C227.562 396.132 227.662 395.704 227.65 395.272C227.756 394.451 227.708 393.619 227.511 392.815C227.408 392.414 227.2 392.045 226.908 391.745C226.615 391.445 226.247 391.225 225.841 391.106C225.637 391.062 225.425 391.06 225.22 391.1C225.015 391.139 224.821 391.22 224.649 391.338C224.478 391.455 224.334 391.605 224.225 391.78C224.117 391.954 224.047 392.149 224.02 392.351L224.147 391.955Z" fill="white"/>
<path d="M240.259 395.849C238.991 397.516 238.155 399.458 237.823 401.509C238.669 401.309 239.448 400.899 240.085 400.32C240.727 399.728 241.534 399.334 242.405 399.188C242.616 399.163 242.83 399.179 243.035 399.235C243.24 399.291 243.432 399.385 243.599 399.514C243.766 399.642 243.905 399.802 244.009 399.983C244.113 400.164 244.179 400.363 244.203 400.569C244.101 399.611 244.132 398.644 244.296 397.694C244.461 396.741 244.389 395.763 244.087 394.842C243.922 394.385 243.621 393.988 243.221 393.702C242.822 393.415 242.344 393.252 241.848 393.234C241.606 393.248 241.371 393.317 241.16 393.435C240.95 393.554 240.772 393.719 240.639 393.917C240.506 394.115 240.422 394.341 240.394 394.576C240.367 394.811 240.396 395.049 240.48 395.272L240.259 395.849Z" fill="white"/>
<path d="M195.936 401.532C195.043 403.17 194.577 404.997 194.579 406.852C194.625 406.427 194.819 406.031 195.13 405.73C195.441 405.429 195.848 405.241 196.284 405.199C197.159 405.13 198.032 405.358 198.755 405.845C198.987 404.996 199.042 404.111 198.917 403.241C198.843 402.812 198.644 402.414 198.343 402.092C198.043 401.771 197.654 401.541 197.223 401.43C196.33 401.294 195.356 402.12 195.599 402.958L195.333 402.313L195.936 401.532Z" fill="white"/>
</g>
</g>
<path d="M184.567 473.504C187.317 466.09 189.289 460.147 189.289 459.818C189.289 459.105 194.068 451.566 194.068 451.566V404.52L192.467 397.241C190.38 387.73 190.932 377.847 194.068 368.613L201.028 359.999H203.986L214.031 348.271C214.031 348.271 219.066 347.139 220.04 350.897C221.015 354.656 215.145 360.949 215.145 360.949L212.431 371.964L215.992 382.718L218.207 383.703C218.207 383.703 220.388 365.387 220.156 361.674L226.304 345.271C227.933 342.643 229.405 339.926 230.712 337.132C231.872 334.393 237.208 331.993 239.795 337.132C240.23 338.073 240.455 339.094 240.455 340.126C240.455 341.159 240.23 342.179 239.795 343.12C238.31 346.516 237.092 349.109 237.092 349.109C237.092 349.109 234.888 363.225 234.517 363.587C234.146 363.949 235.016 384.903 235.016 384.903L236.849 385.853L239.064 366.1L244.447 347.784C244.447 347.784 244.818 338.808 251.198 340.37C252.199 340.404 253.167 340.731 253.976 341.308C254.785 341.885 255.397 342.686 255.733 343.607C257.207 346.947 253.889 368.251 253.889 368.251L253.808 390.54L254.968 407.814L258.9 396.336C258.9 396.336 260.373 379.571 271.335 378.937C271.335 378.937 274.595 378.609 275.094 380.85C275.593 383.091 272.959 387.393 272.959 391.706C272.959 394.728 273.133 398.158 273.215 399.924C273.268 400.715 273.174 401.509 272.936 402.267C271.915 405.663 268.969 415.353 267.763 420.719C266.289 427.251 253.75 446.914 253.75 446.914C253.75 446.914 242.707 458.415 237.069 464.392C234.227 467.414 229.077 480.33 224.669 492.409" stroke="#263238" stroke-miterlimit="10"/>
<path d="M218.08 385.469C218.395 386.592 218.409 387.775 218.121 388.905C217.832 390.035 217.251 391.074 216.433 391.921" fill="white"/>
<path d="M218.08 385.469C218.395 386.592 218.409 387.775 218.121 388.905C217.832 390.035 217.251 391.074 216.433 391.921" stroke="#263238" stroke-miterlimit="10"/>
<path d="M199.334 401.294C200.923 398.894 202.478 395.577 202.048 392.747C201.213 387.189 198.568 380.793 199.728 375.292C200.471 371.783 201.213 368.262 201.967 364.753" fill="white"/>
<path d="M199.334 401.294C200.923 398.894 202.478 395.577 202.048 392.747C201.213 387.189 198.568 380.793 199.728 375.292C200.471 371.783 201.213 368.262 201.967 364.753" stroke="#263238" stroke-miterlimit="10"/>
<path d="M245.583 348.792C247.484 348.303 249.483 348.303 251.383 348.792C251.383 348.26 251.383 347.739 251.441 347.207" stroke="#263238" stroke-miterlimit="10"/>
<path d="M230.353 341.728C230.912 342.1 231.566 342.315 232.242 342.35C232.918 342.386 233.592 342.24 234.189 341.929C234.787 341.617 235.285 341.152 235.631 340.584C235.977 340.016 236.158 339.367 236.153 338.706" stroke="#263238" stroke-miterlimit="10"/>
<path d="M272.275 381.02C270.672 381.422 269.262 382.359 268.29 383.667C267.318 384.975 266.844 386.573 266.951 388.185L269.793 389.023" stroke="#263238" stroke-miterlimit="10"/>
<path d="M234.947 382.401C235.075 384.303 234.83 388.842 234.947 390.744Z" fill="white"/>
<path d="M234.947 382.401C235.075 384.303 234.83 388.842 234.947 390.744" stroke="#263238" stroke-miterlimit="10"/>
<path d="M237.081 385.039C236.849 388.14 236.613 391.249 236.373 394.366C236.373 393.97 236.373 393.574 236.373 393.178" fill="white"/>
<path d="M237.081 385.039C236.849 388.14 236.613 391.249 236.373 394.366C236.373 393.97 236.373 393.574 236.373 393.178" stroke="#263238" stroke-miterlimit="10"/>
<path d="M254.782 411.267C255.624 414.707 255.24 418.325 253.692 421.523Z" fill="white"/>
<path d="M254.782 411.267C255.624 414.707 255.24 418.325 253.692 421.523" stroke="#263238" stroke-miterlimit="10"/>
<path d="M225.376 394.955C222.847 397.66 223.218 404.158 225.005 407.724" stroke="#263238" stroke-miterlimit="10"/>
<path d="M244.064 399.426C244.081 402.464 242.982 405.408 240.967 407.724" stroke="#263238" stroke-miterlimit="10"/>
<path d="M206.955 396.2C206.534 398.958 207.148 401.772 208.684 404.124" stroke="#263238" stroke-miterlimit="10"/>
<path d="M196.191 404.701C196.078 406.854 196.707 408.982 197.977 410.746" stroke="#263238" stroke-miterlimit="10"/>
<path d="M210.946 352.516C211.61 352.215 212.352 352.115 213.075 352.228C213.798 352.341 214.471 352.662 215.006 353.15L216.433 351.305" stroke="#263238" stroke-miterlimit="10"/>
<path d="M222.847 360.825C223.827 360.259 224.981 360.05 226.104 360.235C227.227 360.419 228.247 360.985 228.984 361.832" stroke="#263238" stroke-miterlimit="10"/>
<path d="M241.431 366.485C242.474 366.033 243.606 365.812 244.746 365.835C245.887 365.858 247.009 366.127 248.031 366.621" stroke="#263238" stroke-miterlimit="10"/>
<path d="M200.077 375.983C200.694 374.975 201.595 374.162 202.673 373.64C203.751 373.118 204.959 372.91 206.155 373.039" stroke="#263238" stroke-miterlimit="10"/>
<path d="M192.293 386.804C192.33 386.072 192.623 385.374 193.124 384.826C193.624 384.278 194.301 383.914 195.042 383.793" stroke="#263238" stroke-miterlimit="10"/>
<path d="M491.19 305.459C517.745 305.459 539.272 284.451 539.272 258.537C539.272 232.624 517.745 211.616 491.19 211.616C464.635 211.616 443.108 232.624 443.108 258.537C443.108 284.451 464.635 305.459 491.19 305.459Z" stroke="#263238" stroke-linecap="round" stroke-linejoin="round"/>
<path opacity="0.2" d="M545.618 259.771C535.363 276.174 531.698 273.955 496.758 290.335C478.999 298.644 461.842 271.963 473.454 244.58C474.022 243.244 479.034 236.486 479.034 236.486C480.098 231.93 482.45 227.756 485.822 224.438C489.195 221.12 493.453 218.792 498.114 217.716C502.774 216.641 507.65 216.863 512.188 218.356C516.726 219.849 520.744 222.553 523.787 226.162C527.121 223.372 531.089 221.397 535.362 220.401C539.634 219.405 544.088 219.416 548.355 220.434C548.761 221.566 549.144 222.698 549.515 223.83C549.655 224.261 549.805 224.679 549.933 225.11C550.374 226.434 550.791 227.758 551.174 229.094C551.947 231.63 552.659 234.181 553.308 236.746C549.553 235.563 545.478 235.801 541.894 237.414C539.33 238.637 537.185 240.652 534.517 241.648C531.849 242.644 528.16 242.078 527.139 239.475C528.426 244.704 534.099 243.142 539.458 244.172C547.81 245.746 549.933 252.866 545.618 259.771Z" fill="black"/>
<path d="M529.83 251.678C529.83 251.678 538.437 250.546 542.52 251.146C544.485 251.415 546.272 252.402 547.52 253.908C547.871 254.338 548.077 254.864 548.112 255.413L548.576 261.979C548.602 262.348 548.549 262.719 548.422 263.068C548.294 263.416 548.094 263.736 547.833 264.005C546.151 265.714 541.082 268.827 526.072 269.948C504.925 271.522 529.83 251.678 529.83 251.678Z" fill="white" stroke="#263238" stroke-linecap="round" stroke-linejoin="round"/>
<path d="M523.531 234.709C528.184 240.374 530.676 247.44 530.584 254.7C530.584 262.522 521.304 289.237 497.536 292.497C472.375 295.893 452.145 274.929 456.46 249.64C459.453 232.117 503.336 210.212 523.531 234.709Z" fill="white" stroke="#263238" stroke-linecap="round" stroke-linejoin="round"/>
<path d="M492.791 286.622C512.953 286.622 529.297 271.524 529.297 252.9C529.297 234.276 512.953 219.178 492.791 219.178C472.63 219.178 456.286 234.276 456.286 252.9C456.286 271.524 472.63 286.622 492.791 286.622Z" fill="white"/>
<path d="M492.722 282.343C509.276 282.343 522.696 269.952 522.696 254.666C522.696 239.38 509.276 226.989 492.722 226.989C476.167 226.989 462.747 239.38 462.747 254.666C462.747 269.952 476.167 282.343 492.722 282.343Z" fill="#263238"/>
<path d="M529.297 252.9C529.297 234.279 512.952 219.189 492.791 219.189C472.631 219.189 456.286 234.324 456.286 252.9" stroke="#263238" stroke-linecap="round" stroke-linejoin="round"/>
<path d="M519.68 275.721C525.831 269.64 529.288 261.445 529.308 252.9" stroke="#263238" stroke-linecap="round" stroke-linejoin="round"/>
<path d="M467.225 276.966C474.178 283.212 483.294 286.662 492.745 286.622C498.622 286.636 504.422 285.322 509.692 282.785" stroke="#263238" stroke-linecap="round" stroke-linejoin="round"/>
<path d="M461.958 270.956C462.434 271.657 462.945 272.337 463.467 272.993" stroke="#263238" stroke-linecap="round" stroke-linejoin="round"/>
<path d="M456.286 252.9C456.285 257.895 457.476 262.821 459.766 267.288" stroke="#263238" stroke-linecap="round" stroke-linejoin="round"/>
<path d="M546.36 262.137C546.36 262.137 539.853 257.688 529.285 261.718Z" fill="white"/>
<path d="M546.36 262.137C546.36 262.137 539.853 257.688 529.285 261.718" stroke="#263238" stroke-linecap="round" stroke-linejoin="round"/>
<path d="M540.769 265.216C536.353 266.359 531.828 267.054 527.266 267.288Z" fill="white"/>
<path d="M540.769 265.216C536.353 266.359 531.828 267.054 527.266 267.288" stroke="#263238" stroke-linecap="round" stroke-linejoin="round"/>
<path d="M544.145 263.813C543.647 264.164 543.1 264.442 542.521 264.639Z" fill="white"/>
<path d="M544.145 263.813C543.647 264.164 543.1 264.442 542.521 264.639" stroke="#263238" stroke-linecap="round" stroke-linejoin="round"/>
<path d="M549.933 225.076C549.805 224.645 549.654 224.227 549.515 223.796C547.3 217.095 544.446 209.737 540.978 201.971C540.34 200.534 539.667 199.073 538.994 197.602L538.217 197.67C534.888 197.998 531.384 198.406 528.647 200.251C525.909 202.096 524.274 205.99 526.048 208.763C527.823 211.537 532.347 213.042 531.628 216.178C524.192 220.265 515.121 219.789 506.85 221.838C501.859 223.08 497.158 225.243 493 228.211C491.688 229.166 490.433 230.194 489.242 231.29C488.69 231.788 488.178 232.325 487.71 232.898C486.998 233.712 486.542 234.711 486.4 235.773C486.11 238.795 488.928 240.856 491.933 242.169C492.059 242.217 492.167 242.301 492.243 242.41C492.319 242.519 492.36 242.648 492.36 242.78C492.36 242.912 492.319 243.041 492.243 243.15C492.167 243.259 492.059 243.343 491.933 243.391C489.952 244.08 488.116 245.116 486.516 246.448C486.297 246.64 486.149 246.897 486.094 247.179C486.04 247.462 486.081 247.753 486.213 248.01C486.344 248.267 486.559 248.475 486.823 248.602C487.087 248.728 487.387 248.767 487.676 248.712H488.14C489.316 248.617 490.5 248.756 491.62 249.119C492.407 249.306 493.123 249.711 493.681 250.286C494.238 250.86 494.614 251.579 494.763 252.357C494.949 254.621 492.269 256.726 488.789 256.987C487.942 257.066 488.592 258.051 489.833 258.254C492.323 258.55 494.849 258.35 497.257 257.666C500.169 256.987 503.278 256.002 504.925 253.568C505.604 252.493 505.852 251.211 505.621 249.968C505.556 249.161 505.217 248.398 504.658 247.8C504.1 247.201 503.353 246.801 502.535 246.663C507.917 246.041 513.239 245 518.45 243.55L520.086 243.063C521.678 242.665 523.194 242.019 524.575 241.15C525.39 240.609 526.061 239.887 526.536 239.044C527.696 236.78 526.037 233.169 523.462 233.645C530.944 230.781 538.855 229.117 546.418 226.468C547.52 226.026 548.75 225.574 549.933 225.076Z" fill="white"/>
<path opacity="0.2" d="M492.582 127.158C485.425 133.149 477.695 138.456 469.498 143.006C427.263 167.389 379.552 181.992 331.018 189.112C282.483 196.232 233.067 196.017 184.162 192.089C174.557 191.319 164.79 190.368 155.962 186.588C148.48 183.373 141.694 177.781 138.562 170.547C149.153 158.774 159.001 146.866 169.963 135.625C172.577 132.946 175.253 130.304 177.99 127.701C180.31 125.539 182.63 123.411 185.113 121.328C187.92 118.984 190.739 116.596 193.72 114.332C197.838 111.208 202.176 108.208 206.816 105.344C207.976 104.631 209.136 103.94 210.215 103.261C325.879 33.077 411.011 56.0113 467.805 103.261C472.112 106.868 476.257 110.559 480.24 114.332C482.653 116.596 484.984 118.962 487.2 121.339C487.455 121.588 487.687 121.848 487.931 122.12C489.532 123.803 491.082 125.482 492.582 127.158Z" fill="black"/>
<path d="M497.153 115.905L108.008 117.637L113.889 109.023C115.284 106.987 117.172 105.317 119.385 104.162C121.599 103.007 124.069 102.402 126.579 102.401H478.709C480.989 102.401 483.24 102.901 485.295 103.863C487.351 104.825 489.159 106.224 490.587 107.959L497.153 115.905Z" fill="white" stroke="#263238" stroke-linecap="round" stroke-linejoin="round"/>
<path d="M309.361 172.822H288.04C266.162 172.822 248.426 190.13 248.426 211.48V232.286C248.426 253.636 266.162 270.944 288.04 270.944H309.361C331.239 270.944 348.975 253.636 348.975 232.286V211.48C348.975 190.13 331.239 172.822 309.361 172.822Z" fill="#757575" stroke="#263238" stroke-linecap="round" stroke-linejoin="round"/>
<path d="M266.696 230.181V244.127C266.696 246.229 267.551 248.244 269.074 249.73C270.597 251.216 272.662 252.051 274.816 252.051H323.849C325.993 252.051 328.049 251.224 329.57 249.75C331.091 248.276 331.954 246.275 331.969 244.184C332.027 237.901 332.375 230.181 332.375 230.181H266.696Z" fill="#999999" stroke="#263238" stroke-linecap="round" stroke-linejoin="round"/>
<path d="M446.159 234.833H159.396C157.921 234.837 156.479 234.406 155.258 233.599C154.038 232.791 153.094 231.644 152.552 230.305L108.321 119.494C108.053 118.826 107.956 118.104 108.039 117.391C108.121 116.678 108.38 115.996 108.794 115.403C109.208 114.81 109.763 114.324 110.412 113.987C111.061 113.651 111.785 113.474 112.52 113.472H493C493.737 113.47 494.463 113.645 495.116 113.979C495.768 114.314 496.326 114.8 496.743 115.393C497.159 115.987 497.42 116.671 497.504 117.386C497.587 118.1 497.491 118.824 497.222 119.494L452.992 230.271C452.455 231.614 451.516 232.768 450.297 233.582C449.078 234.395 447.636 234.832 446.159 234.833Z" fill="#BFBFBF" stroke="#263238" stroke-linecap="round" stroke-linejoin="round"/>
<path d="M448.282 225.189H156.577L116.441 120.49H488.233L448.282 225.189Z" fill="#263238"/>
<path d="M332.039 234.686H267.009V239.033H332.039V234.686Z" fill="#263238"/>
<path d="M405.675 220.74H199.683C198.523 220.74 197.479 220.242 197.27 219.608L167.968 128.72C167.643 127.701 168.56 126.875 170.021 126.875H435.337C436.798 126.875 437.657 127.701 437.378 128.72L408.088 219.608C407.879 220.185 406.801 220.74 405.675 220.74Z" fill="#575EFF"/>
<path d="M404.91 218.623H200.448L175.543 138.806H429.815L404.91 218.623Z" fill="#263238"/>
<path d="M229.796 158.627H191.087C190.124 158.627 189.498 159.125 189.683 159.759C189.869 160.125 190.163 160.428 190.527 160.63C190.891 160.831 191.308 160.922 191.725 160.891H230.214C231.165 160.891 231.838 160.393 231.733 159.759C231.629 159.125 230.747 158.627 229.796 158.627Z" fill="white"/>
<path d="M231.084 165.521H198.163C197.224 165.521 196.597 166.008 196.771 166.653C196.957 167.003 197.244 167.291 197.597 167.482C197.95 167.674 198.352 167.759 198.755 167.728H231.49C232.43 167.728 233.091 167.242 232.986 166.653C232.882 166.064 232 165.521 231.084 165.521Z" fill="white"/>
<path opacity="0.5" d="M232.337 172.177H194.985C194.057 172.177 193.453 172.653 193.616 173.219C193.804 173.561 194.092 173.842 194.442 174.027C194.793 174.212 195.191 174.293 195.588 174.26H232.708C233.624 174.26 234.285 173.796 234.181 173.219C234.077 172.641 233.265 172.177 232.337 172.177Z" fill="white"/>
<path d="M233.543 178.607H211.608C210.703 178.607 210.076 179.06 210.216 179.614C210.355 180.169 211.202 180.622 212.106 180.622H233.926C234.831 180.622 235.48 180.169 235.376 179.614C235.272 179.06 234.448 178.607 233.543 178.607Z" fill="white"/>
<path d="M234.715 184.81H198.615C197.734 184.81 197.131 185.252 197.293 185.795C197.455 186.338 198.291 186.757 199.184 186.757H235.074C235.967 186.757 236.605 186.327 236.513 185.795C236.42 185.263 235.608 184.81 234.715 184.81Z" fill="white"/>
<path d="M235.84 190.821H206.7C205.819 190.821 205.227 191.24 205.366 191.761C205.506 192.281 206.329 192.7 207.199 192.7H236.199C237.069 192.7 237.696 192.281 237.603 191.761C237.51 191.24 236.721 190.821 235.84 190.821Z" fill="white"/>
<path d="M236.93 196.628H208.266C207.396 196.628 206.816 197.036 206.956 197.534C207.095 198.032 207.895 198.451 208.754 198.451H237.278C238.136 198.451 238.751 198.043 238.658 197.534C238.566 197.025 237.8 196.628 236.93 196.628Z" fill="white"/>
<path d="M237.986 202.243H206.666C205.819 202.243 205.239 202.639 205.378 203.126C205.517 203.613 206.306 204.009 207.153 204.009H238.276C239.122 204.009 239.737 203.613 239.644 203.126C239.552 202.639 238.844 202.243 237.986 202.243Z" fill="white"/>
<path opacity="0.5" d="M239.018 207.688H218.811C217.976 207.688 217.396 208.073 217.512 208.548C217.628 209.024 218.405 209.397 219.229 209.397H239.331C240.167 209.397 240.77 209.012 240.689 208.548C240.607 208.084 239.853 207.688 239.018 207.688Z" fill="white"/>
<path opacity="0.5" d="M228.45 151.473H199.601C198.627 151.473 197.977 151.994 198.151 152.605C198.337 152.973 198.632 153.279 198.998 153.481C199.365 153.683 199.785 153.772 200.204 153.737H228.88C229.854 153.737 230.538 153.227 230.422 152.605C230.261 152.235 229.982 151.926 229.627 151.722C229.272 151.518 228.86 151.431 228.45 151.473Z" fill="white"/>
<path d="M227.047 144.058H186.888C185.902 144.058 185.252 144.602 185.449 145.27C185.645 145.652 185.951 145.97 186.331 146.184C186.711 146.397 187.146 146.497 187.584 146.469H227.499C228.485 146.469 229.193 145.926 229.065 145.27C228.91 144.88 228.629 144.551 228.265 144.333C227.9 144.114 227.473 144.018 227.047 144.058Z" fill="white"/>
<path d="M240.004 212.963H206.724C205.9 212.963 205.343 213.337 205.471 213.789C205.598 214.242 206.376 214.616 207.199 214.616H240.317C241.129 214.616 241.732 214.254 241.651 213.789C241.57 213.325 240.828 212.963 240.004 212.963Z" fill="white"/>
<path opacity="0.5" d="M243.392 161.14H250.897L250.526 158.344H242.962L243.392 161.14Z" fill="white"/>
<path opacity="0.5" d="M244.435 167.955H251.813L251.453 165.249H244.018L244.435 167.955Z" fill="white"/>
<path opacity="0.5" d="M245.445 174.52H252.695L252.347 171.917H245.05L245.445 174.52Z" fill="white"/>
<path opacity="0.5" d="M246.419 180.871H253.553L253.205 178.358H246.036L246.419 180.871Z" fill="white"/>
<path opacity="0.5" d="M247.37 187.006H254.377L254.04 184.573H246.999L247.37 187.006Z" fill="white"/>
<path opacity="0.5" d="M248.275 192.938H255.166L254.852 190.583H247.916L248.275 192.938Z" fill="white"/>
<path opacity="0.5" d="M249.168 198.677H255.943L255.641 196.402H248.82L249.168 198.677Z" fill="white"/>
<path opacity="0.5" d="M250.015 204.224H256.685L256.395 202.028H249.679L250.015 204.224Z" fill="white"/>
<path opacity="0.5" d="M250.85 209.612H257.416L257.126 207.473H250.514L250.85 209.612Z" fill="white"/>
<path opacity="0.5" d="M242.301 154.088H249.946L249.563 151.19H241.86L242.301 154.088Z" fill="white"/>
<path opacity="0.5" d="M241.176 146.764H248.96L248.565 143.753H240.712L241.176 146.764Z" fill="white"/>
<path opacity="0.5" d="M251.65 214.831H258.112L257.833 212.759H251.326L251.65 214.831Z" fill="white"/>
<path d="M291.218 203.126C291.218 202.639 291.868 202.243 292.715 202.243H403.866C404.713 202.243 405.281 202.639 405.142 203.126C404.96 203.423 404.695 203.663 404.379 203.819C404.063 203.975 403.708 204.041 403.355 204.009H292.773C291.926 204.009 291.23 203.613 291.218 203.126Z" fill="white"/>
<path d="M404.991 198.451H343.441C342.583 198.451 341.933 198.043 341.991 197.534C342.049 197.025 342.792 196.628 343.662 196.628H405.525C406.383 196.628 406.963 197.036 406.812 197.534C406.631 197.841 406.363 198.091 406.04 198.254C405.717 198.417 405.353 198.485 404.991 198.451Z" fill="white"/>
<path opacity="0.5" d="M328.837 198.451H309.72C308.862 198.451 308.166 198.043 308.177 197.534C308.189 197.025 308.885 196.628 309.755 196.628H328.976C329.835 196.628 330.507 197.036 330.461 197.534C330.415 198.032 329.695 198.451 328.837 198.451Z" fill="white"/>
<path d="M368.787 192.7H281.973C281.103 192.7 280.372 192.281 280.337 191.761C280.303 191.24 280.987 190.821 281.869 190.821H369.147C370.017 190.821 370.655 191.24 370.551 191.761C370.446 192.281 369.669 192.7 368.787 192.7Z" fill="white"/>
<path opacity="0.5" d="M263.819 190.821H270.013C270.883 190.821 271.637 191.24 271.684 191.761C271.73 192.281 271.057 192.7 270.187 192.7H264.028C263.158 192.7 262.404 192.281 262.346 191.761C262.288 191.24 262.949 190.821 263.819 190.821Z" fill="white"/>
<path d="M381.35 185.795C381.234 186.327 380.422 186.757 379.529 186.757H297.726C296.833 186.757 296.113 186.327 296.102 185.795C296.09 185.263 296.809 184.81 297.691 184.81H379.947C380.84 184.81 381.466 185.252 381.35 185.795Z" fill="white"/>
<path d="M263.169 184.81H286.369C287.263 184.81 288.005 185.252 288.028 185.795C288.051 186.338 287.344 186.757 286.462 186.757H263.378C262.497 186.757 261.731 186.327 261.661 185.795C261.592 185.263 262.276 184.81 263.169 184.81Z" fill="white"/>
<path d="M262.485 178.607H351.735C352.64 178.607 353.313 179.06 353.232 179.614C353.151 180.169 352.362 180.622 351.457 180.622H262.705C261.812 180.622 261.023 180.169 260.965 179.614C260.907 179.06 261.58 178.607 262.485 178.607Z" fill="white"/>
<path d="M320.427 174.26C319.511 174.26 318.791 173.796 318.815 173.219C318.838 172.641 319.603 172.177 320.531 172.177H367.616C368.544 172.177 369.205 172.653 369.101 173.219C368.996 173.785 368.173 174.26 367.256 174.26H320.427Z" fill="white"/>
<path d="M261.789 172.177H302.54C303.468 172.177 304.21 172.653 304.21 173.219C304.21 173.785 303.456 174.26 302.54 174.26H262.021C261.093 174.26 260.304 173.796 260.235 173.219C260.165 172.641 260.861 172.177 261.789 172.177Z" fill="white"/>
<path d="M414.039 167.683H301.855C300.927 167.683 300.162 167.196 300.162 166.608C300.162 166.019 300.916 165.476 301.855 165.476H414.665C415.605 165.476 416.22 165.962 416.046 166.608C415.854 166.957 415.562 167.245 415.206 167.436C414.85 167.627 414.444 167.713 414.039 167.683Z" fill="white"/>
<path d="M416.034 160.868H317.33C316.379 160.868 315.625 160.37 315.648 159.736C315.671 159.103 316.46 158.604 317.411 158.604H416.695C417.647 158.604 418.273 159.103 418.087 159.736C417.898 160.102 417.602 160.405 417.237 160.606C416.871 160.808 416.453 160.899 416.034 160.868Z" fill="white"/>
<path opacity="0.5" d="M418.122 153.793H397.451C396.477 153.793 395.815 153.284 395.966 152.661C396.147 152.292 396.44 151.985 396.805 151.783C397.17 151.58 397.59 151.492 398.008 151.529H418.76C419.735 151.529 420.373 152.05 420.175 152.661C419.983 153.024 419.686 153.324 419.321 153.525C418.957 153.726 418.54 153.82 418.122 153.793Z" fill="white"/>
<path d="M382.986 153.793H307.087C306.124 153.793 305.335 153.284 305.347 152.661C305.359 152.039 306.136 151.529 307.11 151.529H383.461C384.436 151.529 385.109 152.05 384.981 152.661C384.811 153.03 384.527 153.337 384.17 153.54C383.812 153.743 383.398 153.831 382.986 153.793Z" fill="white"/>
<path d="M265.64 207.688H335.739C336.574 207.688 337.212 208.073 337.154 208.548C337.096 209.024 336.4 209.397 335.565 209.397H265.861C265.025 209.397 264.306 209.012 264.248 208.548C264.19 208.084 264.828 207.688 265.64 207.688Z" fill="white"/>
<path d="M266.243 212.963H373.938C374.75 212.963 375.341 213.337 375.237 213.789C375.133 214.242 374.402 214.616 373.578 214.616H266.429C265.605 214.616 264.898 214.254 264.851 213.789C264.805 213.325 265.42 212.963 266.243 212.963Z" fill="white"/>
<path d="M379.216 146.469H324.394C323.408 146.469 322.643 145.926 322.677 145.27C322.712 144.613 323.536 144.058 324.533 144.058H379.68C380.677 144.058 381.373 144.602 381.246 145.27C381.081 145.653 380.795 145.976 380.431 146.191C380.066 146.407 379.641 146.504 379.216 146.469Z" fill="white"/>
<path opacity="0.5" d="M308.85 146.469H258.97C257.984 146.469 257.114 145.926 257.045 145.27C256.975 144.613 257.706 144.058 258.703 144.058H308.873C309.859 144.058 310.66 144.602 310.648 145.27C310.637 145.937 309.836 146.469 308.85 146.469Z" fill="white"/>
<path opacity="0.5" d="M351.306 207.688C352.141 207.688 352.768 208.073 352.698 208.548C352.629 209.024 351.898 209.397 351.063 209.397H345.68C344.857 209.397 344.23 209.012 344.288 208.548C344.346 208.084 345.065 207.688 345.901 207.688H351.306Z" fill="white"/>
<path opacity="0.5" d="M284.827 203.126C284.827 203.613 284.189 204.009 283.342 204.009H275.964C275.117 204.009 274.398 203.613 274.363 203.126C274.329 202.639 274.978 202.243 275.825 202.243H283.237C284.084 202.243 284.803 202.628 284.827 203.126Z" fill="white"/>
<path opacity="0.5" d="M373.857 179.614C373.752 180.169 372.929 180.622 372.035 180.622H363.405C362.5 180.622 361.851 180.169 361.932 179.614C362.013 179.06 362.837 178.607 363.741 178.607H372.418C373.323 178.607 373.973 179.06 373.857 179.614Z" fill="white"/>
<path opacity="0.5" d="M400.78 184.81C401.673 184.81 402.277 185.252 402.126 185.795C401.944 186.116 401.671 186.377 401.339 186.548C401.008 186.719 400.632 186.792 400.258 186.757H393.379C392.486 186.757 391.883 186.327 392.011 185.795C392.183 185.468 392.452 185.2 392.783 185.024C393.114 184.848 393.492 184.774 393.867 184.81H400.78Z" fill="white"/>
<path opacity="0.5" d="M288.272 167.683C287.344 167.683 286.567 167.196 286.532 166.608C286.497 166.019 287.251 165.476 288.191 165.476H295.51C296.45 165.476 297.216 165.962 297.227 166.608C297.239 167.253 296.485 167.683 295.557 167.683H288.272Z" fill="white"/>
<path d="M188.582 132.829C188.758 133.21 188.829 133.629 188.789 134.045C188.749 134.462 188.599 134.861 188.354 135.203C188.108 135.546 187.775 135.82 187.388 135.999C187.001 136.178 186.573 136.256 186.146 136.225C185.124 136.166 184.144 135.811 183.33 135.206C182.516 134.602 181.905 133.774 181.575 132.829C181.4 132.45 181.329 132.033 181.368 131.618C181.407 131.204 181.555 130.807 181.798 130.465C182.041 130.123 182.37 129.849 182.754 129.668C183.138 129.487 183.563 129.406 183.988 129.433C185.014 129.485 186.001 129.836 186.82 130.441C187.639 131.047 188.253 131.879 188.582 132.829Z" fill="white"/>
<path d="M198.024 132.885C198.182 133.277 198.235 133.7 198.18 134.117C198.124 134.534 197.962 134.931 197.707 135.27C197.452 135.609 197.114 135.879 196.723 136.056C196.332 136.233 195.902 136.311 195.472 136.281C194.463 136.226 193.496 135.871 192.699 135.264C191.903 134.657 191.316 133.827 191.017 132.885C190.864 132.496 190.813 132.075 190.869 131.662C190.924 131.248 191.085 130.854 191.336 130.517C191.588 130.179 191.922 129.909 192.308 129.729C192.693 129.55 193.119 129.467 193.546 129.489C194.561 129.535 195.535 129.886 196.337 130.494C197.139 131.102 197.728 131.938 198.024 132.885Z" fill="white"/>
<path d="M207.571 132.829C207.711 133.229 207.748 133.656 207.678 134.073C207.609 134.49 207.435 134.884 207.172 135.219C206.909 135.555 206.566 135.823 206.172 135.998C205.778 136.173 205.346 136.251 204.914 136.225C203.915 136.179 202.956 135.825 202.175 135.215C201.393 134.606 200.83 133.77 200.564 132.829C200.428 132.43 200.393 132.005 200.463 131.59C200.533 131.175 200.706 130.783 200.967 130.449C201.228 130.114 201.568 129.846 201.959 129.669C202.35 129.492 202.779 129.411 203.209 129.433C204.212 129.471 205.176 129.822 205.961 130.433C206.745 131.044 207.309 131.883 207.571 132.829Z" fill="white"/>
<path opacity="0.1" d="M116.441 120.49L147.703 202.028L185.415 120.49H116.441Z" fill="white"/>
<path opacity="0.1" d="M169.186 225.189L231.745 120.49H297.227L205.158 225.189H169.186Z" fill="white"/>
<path opacity="0.1" d="M325.45 119.969L227.94 225.189H242.962L343.964 120.49L325.45 119.969Z" fill="white"/>
<path opacity="0.1" d="M344.706 225.189L451.867 120.49H466.993L356.503 225.189H344.706Z" fill="white"/>
<path d="M199.404 270.627H174.94C173.401 270.627 171.926 271.224 170.838 272.285C169.751 273.346 169.14 274.786 169.14 276.287V287.902C169.14 289.403 169.751 290.842 170.838 291.904C171.926 292.965 173.401 293.562 174.94 293.562H181.331L186.18 304.282L193.012 293.562H199.404C200.942 293.562 202.418 292.965 203.505 291.904C204.593 290.842 205.204 289.403 205.204 287.902V276.208C205.183 274.721 204.562 273.301 203.477 272.257C202.391 271.213 200.928 270.627 199.404 270.627Z" fill="white" stroke="#263238" stroke-linecap="round" stroke-linejoin="round"/>
<path d="M183.767 277.272C183.767 276.972 183.889 276.684 184.107 276.472C184.324 276.259 184.619 276.14 184.927 276.14C185.221 276.139 185.505 276.248 185.72 276.443C185.935 276.639 186.067 276.907 186.087 277.193C186.087 277.493 185.965 277.781 185.747 277.993C185.53 278.206 185.235 278.325 184.927 278.325C184.633 278.326 184.35 278.217 184.134 278.022C183.919 277.826 183.788 277.558 183.767 277.272ZM184.022 279.638H185.89V287.403H184.022V279.638Z" fill="#263238"/>
<path d="M190.379 279.23V279.695H192.56V281.155H190.437V287.403H188.57V281.155H187.259V279.695H188.57V279.208C188.54 278.84 188.594 278.47 188.728 278.125C188.861 277.779 189.071 277.467 189.343 277.21C189.614 276.953 189.94 276.757 190.298 276.637C190.655 276.516 191.036 276.474 191.412 276.514C192.006 276.49 192.594 276.635 193.105 276.932L192.583 278.302C192.279 278.098 191.92 277.988 191.551 277.985C190.785 277.985 190.379 278.404 190.379 279.23Z" fill="#263238"/>
<path d="M273.899 272.246H249.4C247.862 272.246 246.387 272.842 245.299 273.904C244.211 274.965 243.6 276.405 243.6 277.906V289.532C243.6 291.033 244.211 292.472 245.299 293.534C246.387 294.595 247.862 295.192 249.4 295.192H255.803L260.64 305.912L267.473 295.192H273.876C275.414 295.192 276.89 294.595 277.977 293.534C279.065 292.472 279.676 291.033 279.676 289.532V277.861C279.664 276.371 279.051 274.947 277.969 273.896C276.888 272.845 275.426 272.252 273.899 272.246Z" fill="white" stroke="#263238" stroke-linecap="round" stroke-linejoin="round"/>
<path d="M254.574 285.728H248.321C248.441 286.295 248.772 286.8 249.249 287.144C249.726 287.489 250.317 287.65 250.908 287.596C251.309 287.61 251.708 287.542 252.079 287.396C252.451 287.249 252.787 287.028 253.066 286.747L254.063 287.879C253.461 288.463 252.7 288.868 251.87 289.045C251.04 289.223 250.176 289.165 249.378 288.88C248.581 288.595 247.883 288.094 247.367 287.435C246.851 286.777 246.538 285.988 246.465 285.162C246.449 284.633 246.544 284.107 246.745 283.615C246.946 283.123 247.249 282.678 247.634 282.305C248.019 281.932 248.478 281.641 248.984 281.449C249.489 281.257 250.03 281.168 250.572 281.189C251.114 281.167 251.655 281.257 252.16 281.452C252.664 281.648 253.121 281.945 253.501 282.324C253.88 282.703 254.174 283.155 254.363 283.652C254.552 284.149 254.631 284.679 254.597 285.207C254.597 285.343 254.585 285.558 254.574 285.728ZM248.31 284.528H252.88C252.824 283.992 252.56 283.497 252.141 283.145C251.722 282.793 251.181 282.612 250.63 282.638C250.068 282.602 249.514 282.779 249.082 283.13C248.651 283.482 248.374 283.983 248.31 284.528Z" fill="#263238"/>
<path d="M256.36 278.246H258.216V289.034H256.36V278.246Z" fill="#263238"/>
<path d="M259.84 288.264L260.547 286.883C261.382 287.382 262.341 287.648 263.32 287.653C264.48 287.653 264.99 287.336 264.99 286.792C264.99 285.309 260.072 286.702 260.072 283.611C260.072 282.14 261.429 281.177 263.552 281.177C264.586 281.161 265.609 281.391 266.533 281.845L265.814 283.226C265.11 282.828 264.307 282.628 263.494 282.649C262.334 282.649 261.823 283.011 261.823 283.521C261.823 285.094 266.742 283.691 266.742 286.736C266.742 288.185 265.373 289.135 263.134 289.135C261.975 289.148 260.834 288.846 259.84 288.264Z" fill="#263238"/>
<path d="M275.813 285.728H269.561C269.681 286.295 270.011 286.8 270.489 287.144C270.966 287.489 271.557 287.65 272.148 287.596C272.548 287.61 272.947 287.542 273.319 287.396C273.691 287.249 274.027 287.028 274.305 286.747L275.303 287.879C274.7 288.463 273.94 288.868 273.11 289.045C272.28 289.223 271.416 289.165 270.618 288.88C269.82 288.595 269.123 288.094 268.607 287.435C268.091 286.777 267.778 285.988 267.705 285.162C267.689 284.633 267.784 284.107 267.985 283.615C268.186 283.123 268.489 282.678 268.874 282.305C269.259 281.932 269.718 281.641 270.224 281.449C270.729 281.257 271.269 281.168 271.811 281.189C272.354 281.167 272.895 281.257 273.4 281.452C273.904 281.648 274.361 281.945 274.741 282.324C275.12 282.703 275.414 283.155 275.603 283.652C275.791 284.149 275.871 284.679 275.837 285.207C275.837 285.343 275.825 285.558 275.813 285.728ZM269.549 284.528H274.062C274.006 283.992 273.741 283.497 273.323 283.145C272.904 282.793 272.363 282.612 271.811 282.638C271.26 282.617 270.72 282.8 270.301 283.151C269.882 283.501 269.613 283.993 269.549 284.528Z" fill="#263238"/>
<path d="M346.121 271.567H321.645C320.116 271.567 318.65 272.155 317.564 273.204C316.478 274.254 315.86 275.679 315.845 277.17V288.796C315.845 290.297 316.456 291.737 317.544 292.798C318.631 293.86 320.106 294.456 321.645 294.456H328.048L332.885 305.176L339.718 294.456H346.121C347.659 294.456 349.134 293.86 350.222 292.798C351.31 291.737 351.921 290.297 351.921 288.796V277.17C351.905 275.679 351.288 274.254 350.202 273.204C349.116 272.155 347.649 271.567 346.121 271.567Z" fill="white" stroke="#263238" stroke-linecap="round" stroke-linejoin="round"/>
<path d="M327.259 280.17V280.634H329.44V282.094H327.306V288.343H325.45V282.094H324.139V280.634H325.45V280.147C325.421 279.78 325.474 279.412 325.607 279.067C325.74 278.723 325.949 278.411 326.219 278.154C326.489 277.897 326.814 277.701 327.17 277.58C327.526 277.459 327.905 277.416 328.28 277.453C328.871 277.425 329.457 277.571 329.962 277.872L329.44 279.242C329.141 279.037 328.785 278.926 328.419 278.925C327.665 278.925 327.259 279.344 327.259 280.17Z" fill="#263238"/>
<path d="M329.927 284.46C329.895 283.634 330.116 282.818 330.563 282.116C331.01 281.414 331.662 280.858 332.435 280.52C333.208 280.183 334.067 280.078 334.901 280.221C335.736 280.363 336.507 280.746 337.117 281.32C337.726 281.893 338.146 282.632 338.322 283.44C338.499 284.249 338.423 285.09 338.105 285.856C337.787 286.623 337.242 287.278 336.539 287.74C335.836 288.201 335.008 288.447 334.161 288.445C333.61 288.475 333.058 288.393 332.541 288.205C332.023 288.017 331.551 287.727 331.154 287.353C330.757 286.979 330.442 286.529 330.231 286.032C330.02 285.534 329.917 284.999 329.927 284.46ZM336.528 284.46C336.494 284.021 336.329 283.601 336.055 283.252C335.78 282.903 335.407 282.639 334.981 282.493C334.556 282.348 334.096 282.327 333.658 282.432C333.22 282.538 332.823 282.766 332.515 283.088C332.208 283.41 332.004 283.813 331.928 284.247C331.851 284.681 331.906 285.127 332.086 285.531C332.265 285.935 332.562 286.279 332.939 286.521C333.315 286.763 333.756 286.893 334.208 286.894C334.527 286.895 334.844 286.831 335.138 286.707C335.431 286.583 335.695 286.401 335.913 286.172C336.131 285.944 336.298 285.673 336.404 285.379C336.509 285.084 336.552 284.772 336.528 284.46Z" fill="#263238"/>
<path d="M344.787 280.487V282.219C344.644 282.209 344.5 282.209 344.358 282.219C344.034 282.194 343.709 282.24 343.406 282.354C343.104 282.468 342.831 282.646 342.608 282.877C342.386 283.107 342.219 283.383 342.12 283.684C342.021 283.986 341.993 284.305 342.038 284.619V288.388H340.17V280.623H341.945V281.755C342.264 281.32 342.694 280.974 343.193 280.752C343.691 280.529 344.241 280.438 344.787 280.487Z" fill="#263238"/>
<path d="M417.298 270.627H392.822C391.284 270.627 389.809 271.224 388.721 272.285C387.634 273.346 387.022 274.786 387.022 276.287V287.902C387.022 289.403 387.634 290.842 388.721 291.904C389.809 292.965 391.284 293.562 392.822 293.562H399.226L404.063 304.282L410.895 293.562H417.298C418.837 293.562 420.312 292.965 421.4 291.904C422.487 290.842 423.098 289.403 423.098 287.902V276.208C423.077 274.721 422.457 273.301 421.371 272.257C420.286 271.213 418.823 270.627 417.298 270.627Z" fill="white" stroke="#263238" stroke-linecap="round" stroke-linejoin="round"/>
<path d="M401.882 279.253H408.749V280.736H401.882V279.253ZM401.882 282.774H408.749V284.234H401.882V282.774Z" fill="#263238"/>
<path d="M236.71 257.179H212.28C210.742 257.179 209.266 257.775 208.179 258.837C207.091 259.898 206.48 261.338 206.48 262.839V274.453C206.48 275.954 207.091 277.394 208.179 278.456C209.266 279.517 210.742 280.113 212.28 280.113H218.683L223.52 290.833L230.353 280.113H236.756C238.294 280.113 239.769 279.517 240.857 278.456C241.945 277.394 242.556 275.954 242.556 274.453V262.794C242.55 262.05 242.394 261.316 242.097 260.631C241.8 259.947 241.367 259.326 240.824 258.805C240.282 258.283 239.639 257.871 238.933 257.593C238.227 257.314 237.471 257.173 236.71 257.179Z" fill="white" stroke="#263238" stroke-linecap="round" stroke-linejoin="round"/>
<path d="M218.718 262.001H222.279V263.462H220.574V274.159H222.279V275.619H218.718V262.001Z" fill="#263238"/>
<path d="M226.896 275.619V274.159H228.578V263.462H226.896V262.001H230.434V275.585L226.896 275.619Z" fill="#263238"/>
<path d="M309.465 255.99H284.989C283.45 255.99 281.975 256.587 280.888 257.648C279.8 258.71 279.189 260.149 279.189 261.65V273.265C279.189 274.766 279.8 276.206 280.888 277.267C281.975 278.328 283.45 278.925 284.989 278.925H291.392L296.241 289.645L303.073 278.925H309.465C311.003 278.925 312.478 278.328 313.566 277.267C314.654 276.206 315.265 274.766 315.265 273.265V261.605C315.252 260.112 314.636 258.684 313.55 257.632C312.463 256.581 310.995 255.99 309.465 255.99Z" fill="white" stroke="#263238" stroke-linecap="round" stroke-linejoin="round"/>
<path d="M292.25 267.582C292.842 267.763 293.132 268.159 293.132 269.065V271.827C293.103 271.982 293.113 272.141 293.161 272.292C293.209 272.442 293.294 272.578 293.408 272.69C293.522 272.801 293.662 272.884 293.816 272.931C293.97 272.978 294.133 272.987 294.292 272.959H294.605V274.419H293.851C293.516 274.468 293.173 274.441 292.85 274.34C292.527 274.24 292.232 274.068 291.987 273.838C291.743 273.608 291.556 273.327 291.441 273.016C291.325 272.704 291.285 272.371 291.322 272.042V269.054C291.322 268.567 291.067 268.352 290.65 268.352H290.162V266.869H290.65C291.067 266.869 291.322 266.654 291.322 266.167V263.179C291.285 262.85 291.325 262.517 291.441 262.205C291.556 261.894 291.743 261.612 291.987 261.383C292.232 261.153 292.527 260.981 292.85 260.88C293.173 260.78 293.516 260.753 293.851 260.801H294.605V262.262H294.292C294.133 262.234 293.97 262.243 293.816 262.29C293.662 262.337 293.522 262.42 293.408 262.531C293.294 262.642 293.209 262.779 293.161 262.929C293.113 263.08 293.103 263.239 293.132 263.394V266.156C293.132 266.994 292.842 267.39 292.25 267.582Z" fill="#263238"/>
<path d="M303.618 266.835V268.284H303.108C302.702 268.284 302.447 268.499 302.447 268.986V271.974C302.485 272.304 302.444 272.639 302.328 272.951C302.212 273.263 302.024 273.545 301.778 273.775C301.533 274.005 301.236 274.177 300.911 274.277C300.587 274.377 300.243 274.402 299.906 274.352H299.152V272.925H299.466C299.624 272.951 299.786 272.939 299.939 272.891C300.091 272.843 300.23 272.761 300.343 272.65C300.457 272.539 300.542 272.404 300.591 272.255C300.64 272.106 300.652 271.948 300.626 271.793V269.031C300.626 268.126 300.892 267.729 301.484 267.548C300.892 267.356 300.626 266.96 300.626 266.054V263.292C300.652 263.137 300.64 262.979 300.591 262.83C300.542 262.681 300.457 262.546 300.343 262.435C300.23 262.325 300.091 262.242 299.939 262.194C299.786 262.146 299.624 262.134 299.466 262.16H299.152V260.7H299.906C300.243 260.649 300.587 260.674 300.911 260.774C301.236 260.874 301.533 261.046 301.778 261.276C302.024 261.506 302.212 261.788 302.328 262.1C302.444 262.412 302.485 262.747 302.447 263.077V266.065C302.447 266.552 302.702 266.767 303.108 266.767L303.618 266.835Z" fill="#263238"/>
<path d="M381.454 253.636H356.978C355.44 253.636 353.965 254.232 352.877 255.294C351.79 256.355 351.178 257.795 351.178 259.296V270.91C351.178 272.411 351.79 273.851 352.877 274.912C353.965 275.974 355.44 276.57 356.978 276.57H363.37L368.219 287.29L375.051 276.57H381.454C382.993 276.57 384.468 275.974 385.556 274.912C386.643 273.851 387.254 272.411 387.254 270.91V259.228C387.236 257.739 386.617 256.316 385.531 255.27C384.446 254.223 382.981 253.636 381.454 253.636Z" fill="white" stroke="#263238" stroke-linecap="round" stroke-linejoin="round"/>
<path d="M368.242 262.239C368.225 262.072 368.245 261.904 368.299 261.745C368.353 261.587 368.44 261.44 368.555 261.316C368.671 261.192 368.811 261.093 368.968 261.026C369.125 260.958 369.294 260.923 369.466 260.923C369.637 260.923 369.807 260.958 369.964 261.026C370.121 261.093 370.261 261.192 370.377 261.316C370.492 261.44 370.579 261.587 370.633 261.745C370.687 261.904 370.706 262.072 370.69 262.239C370.706 262.406 370.687 262.574 370.633 262.733C370.579 262.892 370.492 263.038 370.377 263.162C370.261 263.286 370.121 263.385 369.964 263.453C369.807 263.52 369.637 263.555 369.466 263.555C369.294 263.555 369.125 263.52 368.968 263.453C368.811 263.385 368.671 263.286 368.555 263.162C368.44 263.038 368.353 262.892 368.299 262.733C368.245 262.574 368.225 262.406 368.242 262.239ZM370.69 267.775C370.658 268.211 370.54 268.638 370.342 269.031L369.576 271.08H368.416L369.019 268.816C368.804 268.727 368.621 268.577 368.495 268.385C368.369 268.193 368.305 267.969 368.312 267.741C368.312 267.427 368.439 267.126 368.667 266.904C368.894 266.682 369.202 266.558 369.524 266.558C369.845 266.558 370.154 266.682 370.381 266.904C370.608 267.126 370.736 267.427 370.736 267.741L370.69 267.775Z" fill="#263238"/>
<path d="M285.778 456.762H310.242C311.78 456.762 313.255 456.166 314.343 455.104C315.431 454.043 316.042 452.603 316.042 451.102V439.533C316.042 438.032 315.431 436.592 314.343 435.531C313.255 434.469 311.78 433.873 310.242 433.873H303.85L301.983 423.153L292.169 433.873H285.778C284.239 433.873 282.764 434.469 281.676 435.531C280.589 436.592 279.978 438.032 279.978 439.533V451.147C279.99 452.641 280.606 454.069 281.693 455.12C282.779 456.172 284.247 456.762 285.778 456.762Z" fill="white" stroke="#263238" stroke-linecap="round" stroke-linejoin="round"/>
<path d="M294.373 442.952L289.234 444.876L294.373 446.744V448.272L287.506 445.668V444.095L294.373 441.491V442.952Z" fill="#263238"/>
<path d="M299.802 437.665H301.461L296.542 451.374H294.884L299.802 437.665Z" fill="#263238"/>
<path d="M308.687 444.038V445.612L301.82 448.215V446.698L306.959 444.831L301.82 442.952V441.48L308.687 444.038Z" fill="#263238"/>
<path d="M130.198 372.145H154.663C156.191 372.145 157.658 371.557 158.744 370.507C159.83 369.458 160.448 368.033 160.463 366.542V354.916C160.463 353.415 159.852 351.975 158.764 350.914C157.676 349.852 156.201 349.256 154.663 349.256H148.271L149.663 338.536L136.59 349.256H130.198C128.66 349.256 127.185 349.852 126.097 350.914C125.01 351.975 124.398 353.415 124.398 354.916V366.542C124.414 368.033 125.032 369.458 126.118 370.507C127.204 371.557 128.67 372.145 130.198 372.145Z" fill="white" stroke="#263238" stroke-linecap="round" stroke-linejoin="round"/>
<path d="M137.448 364.787C137.448 364.487 137.57 364.199 137.788 363.987C138.006 363.774 138.301 363.655 138.608 363.655C138.916 363.655 139.211 363.774 139.428 363.987C139.646 364.199 139.768 364.487 139.768 364.787C139.768 365.087 139.646 365.375 139.428 365.587C139.211 365.8 138.916 365.919 138.608 365.919C138.301 365.919 138.006 365.8 137.788 365.587C137.57 365.375 137.448 365.087 137.448 364.787ZM137.553 355.629H139.757L139.385 362.421H137.912L137.553 355.629Z" fill="#263238"/>
<path d="M141.683 358.233H148.55V359.693H141.683V358.233ZM141.683 361.753H148.55V363.213H141.683V361.753Z" fill="#263238"/>
</svg>
