<svg width="98" height="110" viewBox="0 0 98 110" fill="none" xmlns="http://www.w3.org/2000/svg">
<path d="M48.5259 88C48.2569 88 47.9878 87.8974 47.7444 87.7265L45.2844 85.778C44.9128 85.5045 45.0922 85.4019 45.2203 85.3507C45.7072 85.1285 45.8097 85.0772 46.335 84.667C46.3863 84.6328 46.4631 84.6499 46.5144 84.6841L48.4106 86.1882C48.4747 86.2395 48.5772 86.2395 48.6413 86.1882L56.0469 80.4793C56.1109 80.428 56.1622 80.3255 56.1622 80.2058V68.8052C56.1622 68.6855 56.1237 68.583 56.0469 68.5317L48.6413 62.8399C48.5772 62.7886 48.4875 62.7886 48.4106 62.8399L41.005 68.5317C40.9281 68.583 40.8897 68.7026 40.8897 68.8052V80.2058C40.8897 80.3084 40.9409 80.4109 41.005 80.4622L43.0294 82.0176C44.1312 82.7526 44.8103 81.8809 44.8103 81.0263V69.7623C44.8103 69.6085 44.9 69.4718 45.0281 69.4718H45.9634C46.0787 69.4718 46.1812 69.5914 46.1812 69.7623V81.0263C46.1812 82.9919 45.3869 84.1029 43.9903 84.1029C43.5675 84.1029 43.2216 84.1029 42.2862 83.4876L40.3387 82.0005C39.8647 81.6245 39.5572 80.9408 39.5572 80.2058V68.8052C39.5572 68.0702 39.8519 67.3694 40.3387 67.0105L47.7444 61.3016C48.2184 60.9426 48.8334 60.9426 49.2947 61.3016L56.7003 67.0105C57.1744 67.3865 57.4819 68.0702 57.4819 68.8052V80.2058C57.4819 80.9408 57.1872 81.6416 56.7003 82.0005L49.2947 87.7094C49.0769 87.8974 48.8078 88 48.5259 88ZM54.5094 76.7532C54.5094 74.6166 53.4331 74.0525 51.1525 73.6423C48.8462 73.2321 48.6156 73.027 48.6156 72.3091C48.6156 71.7109 48.8078 70.9246 50.5119 70.9246C52.0366 70.9246 52.6003 71.369 52.8309 72.7364C52.8566 72.8732 52.9334 72.9586 53.0359 72.9586H53.9969C54.0609 72.9586 54.1122 72.9244 54.1506 72.8732C54.1891 72.8048 54.2147 72.7364 54.2019 72.651C54.0481 70.2922 52.8822 69.1983 50.5119 69.1983C48.3978 69.1983 47.1422 70.3948 47.1422 72.3775C47.1422 74.5482 48.3978 75.1294 50.4222 75.4028C52.8437 75.7276 53.0359 76.1891 53.0359 76.8215C53.0359 77.9325 52.3697 78.394 50.8066 78.394C48.8462 78.394 48.4106 77.7445 48.2697 76.4455C48.2569 76.3088 48.1672 76.2062 48.0519 76.2062H47.0909C46.9756 76.2062 46.8731 76.3258 46.8731 76.4968C46.8731 78.1547 47.5522 80.1375 50.7937 80.1375C53.1641 80.1375 54.5094 78.9068 54.5094 76.7532ZM61.4922 68.1898C61.4922 69.2325 60.8516 70.0871 60.07 70.0871C59.2884 70.0871 58.6478 69.2325 58.6478 68.1898C58.6478 67.113 59.3141 66.2926 60.07 66.2926C60.8387 66.2755 61.4922 67.113 61.4922 68.1898ZM61.2616 68.1898C61.2616 67.301 60.7234 66.6002 60.0572 66.6002C59.4037 66.6002 58.8656 67.301 58.8656 68.1898C58.8656 69.0786 59.4037 69.7965 60.0572 69.7965C60.7234 69.7794 61.2616 69.0615 61.2616 68.1898ZM60.685 69.2496H60.3519C60.3391 69.147 60.2878 68.6 60.2878 68.583C60.2622 68.4633 60.2366 68.3949 60.1212 68.3949H59.8394V69.2496H59.5319V67.113H60.0828C60.275 67.113 60.6466 67.113 60.6466 67.6771C60.6466 68.0702 60.4544 68.1556 60.3391 68.2069C60.5569 68.224 60.5697 68.412 60.6081 68.6855C60.6209 68.8564 60.6466 69.147 60.685 69.2496ZM60.3262 67.7454C60.3262 67.4549 60.1725 67.4549 60.0956 67.4549H59.8394V68.0531H60.0828C60.2878 68.0531 60.3262 67.8651 60.3262 67.7454ZM25.5916 43.3887C25.5916 42.9272 25.4122 42.5169 25.1175 42.2947L17.2634 36.2611C17.1353 36.1585 16.9816 36.1073 16.8278 36.0902H16.7509C16.5972 36.0902 16.4563 36.1585 16.3153 36.2611L8.47406 42.2947C8.17938 42.5169 8 42.9442 8 43.3887L8.01281 59.6265C8.01281 59.8487 8.1025 60.0538 8.24344 60.1735C8.38437 60.2931 8.56375 60.2931 8.7175 60.1735L13.3812 56.6011C13.6759 56.3618 13.8553 55.9516 13.8553 55.5072V47.9182C13.8553 47.4738 14.0347 47.0464 14.3294 46.8242L16.3153 45.303C16.4691 45.1834 16.6228 45.1321 16.7894 45.1321C16.9559 45.1321 17.1225 45.1834 17.2634 45.303L19.2494 46.8242C19.5441 47.0464 19.7234 47.4738 19.7234 47.9182V55.5072C19.7234 55.9516 19.9028 56.3789 20.1975 56.6011L24.8613 60.1735C25.0022 60.2931 25.1944 60.2931 25.3353 60.1735C25.4762 60.0709 25.5659 59.8487 25.5659 59.6265L25.5916 43.3887ZM68.5391 25.6638V55.8149C68.5391 56.2593 68.3597 56.6866 68.065 56.9088L60.2109 62.9595C59.9162 63.1817 59.5575 63.1817 59.2628 62.9595L51.4087 56.9088C51.1141 56.6866 50.9347 56.2593 50.9347 55.8149V43.7134C50.9347 43.269 51.1141 42.8417 51.4087 42.6195L59.2628 36.5688C59.5575 36.3466 59.9162 36.3466 60.2109 36.5688L62.1712 38.0729C62.3891 38.2438 62.6709 38.0216 62.6709 37.6969V21.6299C62.6709 21.1513 63.0553 20.8437 63.3756 21.083L68.0522 24.5698C68.3469 24.775 68.5391 25.2023 68.5391 25.6638ZM62.6453 47.696C62.6453 47.5763 62.5941 47.4738 62.53 47.4225L59.8394 45.3372C59.7625 45.2859 59.6728 45.2859 59.5959 45.3372L56.9053 47.4225C56.8284 47.4738 56.79 47.5763 56.79 47.696V51.8494C56.79 51.9691 56.8413 52.0716 56.9053 52.1229L59.5959 54.1911C59.6728 54.2424 59.7625 54.2424 59.8266 54.1911L62.5172 52.1229C62.5941 52.0716 62.6325 51.9691 62.6325 51.8494V47.696H62.6453ZM89.5259 47.5763C89.8206 47.3541 90 46.9268 90 46.4824V43.5596C90 43.1152 89.8206 42.6879 89.5259 42.4657L81.7231 36.4149C81.4284 36.1927 81.0697 36.1927 80.775 36.4149L72.9209 42.4657C72.6263 42.6879 72.4469 43.1152 72.4469 43.5596V55.661C72.4469 56.1225 72.6263 56.5328 72.9209 56.755L80.7237 62.6861C81.0056 62.9083 81.3644 62.9083 81.6591 62.6861L86.3741 59.1821C86.6944 58.9428 86.6944 58.3275 86.3741 58.0882L78.4687 52.0374C78.315 51.9178 78.2253 51.7127 78.2253 51.4905V47.696C78.2253 47.4738 78.315 47.2686 78.4687 47.149L80.9287 45.2517C81.0697 45.1321 81.2619 45.1321 81.4028 45.2517L83.8628 47.149C84.0037 47.2686 84.1062 47.4738 84.1062 47.696V50.67C84.1062 51.1486 84.5034 51.4563 84.8237 51.217L89.5259 47.5763ZM79.6219 48.1745C79.5706 48.2258 79.5322 48.2942 79.5322 48.3797V50.7042C79.5322 50.7897 79.5706 50.8752 79.6219 50.9093L81.1337 52.0716C81.185 52.1229 81.2619 52.1229 81.3131 52.0716L82.825 50.9093C82.8762 50.8581 82.9147 50.7897 82.9147 50.7042V48.3797C82.9147 48.2942 82.8762 48.2087 82.825 48.1745L81.3131 47.0123C81.2619 46.961 81.185 46.961 81.1337 47.0123L79.6219 48.1745ZM47.0525 55.6098V43.5767C47.0525 43.1323 46.8475 42.705 46.5528 42.4828L38.7244 36.4662C38.4553 36.2611 38.0837 36.2269 37.7762 36.4662L29.9478 42.4828C29.6531 42.705 29.4481 43.1152 29.4481 43.5767V55.6098C29.4481 56.0884 29.6916 56.4986 29.9606 56.7037L37.8019 62.7202C38.1094 62.9595 38.4681 62.9424 38.75 62.7202L46.5656 56.7037C46.7962 56.5328 46.9628 56.2422 47.0269 55.9003C47.0397 55.8149 47.0525 55.7123 47.0525 55.6098ZM37.5328 34.2613L37.4303 34.3467H37.5712L37.5328 34.2613ZM47.2959 56.5157L47.2447 56.396V56.5499L47.2959 56.5157Z" fill="#4E9842"/>
</svg>
